<?xml version="1.0" encoding="UTF-8" standalone="no"?>
<!-- Created with Inkscape (http://www.inkscape.org/) -->

<svg
   version="1.1"
   id="svg5612"
   width="1280"
   height="1280"
   viewBox="0 0 1280 1280"
   xmlns="http://www.w3.org/2000/svg"
   xmlns:svg="http://www.w3.org/2000/svg">
  <defs
     id="defs5616" />
  <g
     id="g5618">
    <path
       style="fill:#ffcc00"
       d="m 566.22053,1051.9831 c -0.033,-1.9426 0.6201,-5.9926 1.4521,-9 0.832,-3.0073 1.7816,-6.8732 2.1102,-8.5908 0.3485,-1.8213 0.1421,-3.4043 -0.4952,-3.7982 -0.6009,-0.3714 -6.163,0.2275 -12.3602,1.3309 -6.1971,1.1034 -15.5425,2.4627 -20.7675,3.0207 -5.225,0.558 -16.925,1.2987 -26,1.646 -9.811,0.3754 -18.9324,0.2169 -22.5,-0.391 -3.3,-0.5623 -8.025,-1.9507 -10.5,-3.0854 l -4.5,-2.063 5,0.7085 c 2.75,0.3897 13.55,0.6708 24,0.6248 l 19,-0.084 26.2253,-5.6516 c 14.4239,-3.1084 30.7104,-6.1119 36.1922,-6.6745 6.6791,-0.6854 12.009,-0.6939 16.1572,-0.026 3.4046,0.5483 6.3201,1.1269 6.4789,1.2857 0.1588,0.1588 -4.9535,2.9867 -11.3607,6.2842 -8.2632,4.2528 -13.2684,7.5942 -17.2193,11.4955 -3.0634,3.025 -6.7584,7.975 -8.2111,11 l -2.6414,5.5 -0.061,-3.5321 z m 123.39,-3.0774 c -1.0057,-2.2303 -4.3494,-6.6715 -7.4304,-9.8695 -4.5933,-4.7677 -7.8447,-6.8955 -18.061,-11.8195 -11.3586,-5.4746 -12.2108,-6.0689 -9.6468,-6.7274 1.5468,-0.3972 9.1968,-0.5016 17,-0.2319 11.8801,0.4105 17.6031,1.228 35.1876,5.0259 11.55,2.4946 24.375,5.1365 28.5,5.8709 4.5198,0.8047 14.8512,1.3241 26,1.3071 10.7664,-0.016 20.0676,-0.4999 22.25,-1.1566 2.0625,-0.6205 3.75,-0.9147 3.75,-0.6536 0,0.2611 -2.5875,1.6679 -5.75,3.1263 -5.445,2.5109 -6.5988,2.6538 -21.75,2.6947 -8.8,0.024 -21.85,-0.5244 -29,-1.2181 -7.15,-0.6937 -17.5,-2.0032 -23,-2.9102 -5.5,-0.9069 -11.8,-1.6893 -14,-1.7387 -3.6227,-0.081 -4.0293,0.1632 -4.31,2.5937 -0.1705,1.476 0.416,4.0877 1.3035,5.8038 0.8874,1.7161 1.8699,5.2851 2.1832,7.9312 0.3235,2.7312 0.1446,5.0738 -0.4139,5.4189 -0.541,0.3344 -1.8065,-1.2168 -2.8122,-3.447 z m -123.1116,-54.20318 c -2.2385,-2.0223 -5.6639,-4.3429 -7.6121,-5.1569 -1.9482,-0.814 -4.4837,-2.677 -5.6345,-4.1401 -1.1508,-1.463 -2.0924,-3.22962 -2.0924,-3.92583 0,-0.69622 1.1206,-3.67303 2.4902,-6.61514 2.0219,-4.34319 2.2402,-5.53738 1.1608,-6.3493 -0.7312,-0.55 -1.5649,-2.2401 -1.8527,-3.75578 -0.2877,-1.51569 -0.1063,-5.0494 0.4032,-7.85271 0.5095,-2.80331 0.6941,-5.32919 0.4103,-5.61307 -0.2839,-0.28388 -2.4155,1.10957 -4.7368,3.09656 -2.3214,1.98699 -4.3993,3.43408 -4.6176,3.21576 -0.2183,-0.21832 0.4996,-2.12806 1.5953,-4.24385 1.0958,-2.1158 3.1521,-5.39684 4.5698,-7.29119 1.4176,-1.89435 2.5775,-4.39185 2.5775,-5.55 0,-1.15815 0.486,-2.59177 1.0801,-3.18583 0.772,-0.77197 0.7736,-2.18411 0.01,-4.95 -0.591,-2.12844 -1.0839,-5.66989 -1.0954,-7.86989 -0.015,-2.95222 -0.2748,-3.60708 -0.9903,-2.5 -0.7345,1.13655 -0.9731,0.70447 -0.9847,-1.78324 -0.01,-1.80579 -1.15,-5.52251 -2.5369,-8.25938 -2.1792,-4.30049 -2.4062,-5.61982 -1.6715,-9.71676 l 0.8501,-4.74062 3.5792,11.5 c 1.9686,6.325 3.8632,13.17171 4.2102,15.21492 0.3471,2.04321 1.1294,4.02289 1.7384,4.39929 0.7926,0.48982 0.9072,-1.13475 0.4033,-5.71493 -0.3873,-3.5196 -1.6678,-10.10998 -2.8458,-14.64527 l -2.1417,-8.24599 4.1345,-5.86268 c 2.274,-3.22447 4.5207,-7.35308 4.9927,-9.1747 0.8061,-3.11065 0.9658,-2.80002 2.6267,5.10866 0.9726,4.63139 3.1398,13.67526 4.8159,20.09749 2.1821,8.36052 3.4183,11.53453 4.353,11.17586 0.7825,-0.30028 2.3897,1.34931 4.0125,4.11829 2.4896,4.24823 2.8441,4.49513 4.4143,3.07414 0.939,-0.84979 1.9439,-1.54508 2.2331,-1.54508 0.2893,0 0.7977,4.3875 1.1299,9.75 0.3835,6.19053 1.5317,12.67059 3.1453,17.75 1.3977,4.4 2.5276,8.225 2.511,8.5 -0.017,0.275 -0.489,-0.2875 -1.0496,-1.25 -0.5606,-0.9625 -1.4469,-1.75 -1.9696,-1.75 -0.5226,0 -0.9495,0.3375 -0.9485,0.75 0,0.4125 2.6398,4.27106 5.8641,8.57458 3.2242,4.30352 6.3734,9.53073 6.9982,11.61602 0.6247,2.08529 1.0911,5.76427 1.0362,8.17537 -0.055,2.4112 -0.4667,5.509 -0.9153,6.884 -0.4909,1.5047 -0.6003,-0.3095 -0.2747,-4.5567 0.4065,-5.303 0.1497,-7.8134 -1.0336,-10.10154 -0.866,-1.67466 -3.1353,-4.34914 -5.0429,-5.94329 -1.9076,-1.59414 -4.5317,-3.63233 -5.8313,-4.52931 -1.5876,-1.09577 -3.106,-4.05281 -4.6277,-9.01238 -1.2456,-4.05983 -3.2571,-9.13279 -4.4698,-11.27325 -1.2127,-2.14045 -2.9661,-4.36596 -3.8964,-4.94558 -1.2768,-0.79546 -2.1542,-0.63508 -3.5788,0.65412 -1.038,0.93938 -2.8485,1.70796 -4.0233,1.70796 -1.1749,0 -2.602,0.87042 -3.1713,1.93426 -0.5698,1.06384 -1.0356,2.69394 -1.0356,3.62244 0,1.45949 0.2286,1.50227 1.6872,0.31574 1.5024,-1.22209 1.5966,-1.15335 0.8594,0.62756 -0.4553,1.1 -1.4395,4.23557 -2.1872,6.96793 -0.7477,2.73236 -1.3594,5.77597 -1.3594,6.76357 0,0.9876 -0.5625,2.80203 -1.25,4.03207 -0.6875,1.23004 -1.6529,2.52838 -2.1453,2.88521 -0.4923,0.35683 -0.5995,2.12731 -0.2381,3.93439 0.3614,1.80708 1.3951,4.10103 2.2971,5.0977 1.2457,1.3765 1.9639,1.5431 2.9881,0.6932 1.0491,-0.8708 1.3494,-0.7036 1.3538,0.7535 0,1.0298 0.4742,3.5599 1.047,5.6224 0.5728,2.0625 1.4702,3.75 1.9944,3.75 0.5241,0 0.9552,-0.7875 0.958,-1.75 0,-0.9625 1.1592,-3.1 2.5701,-4.75 l 2.5652,-3 -0.5239,3.1437 c -0.2881,1.7289 -1.1277,4.6234 -1.8657,6.432 l -1.3418,3.2885 z m 2.661,-62.76258 c 0,-0.97093 -1.397,-5.73869 -3.1044,-10.59501 -1.7074,-4.85632 -3.5362,-9.50468 -4.064,-10.32968 -0.6282,-0.98206 -0.7619,2.05732 -0.3871,8.80234 0.3148,5.66629 1.2481,11.91948 2.0739,13.89597 1.4653,3.50699 1.5495,3.55021 3.4915,1.79267 1.0946,-0.99052 1.9901,-2.59536 1.9901,-3.56629 z m 158.7494,51.41192 c 2.0628,-3.93987 3.3886,-7.52684 2.9462,-7.97104 -0.4424,-0.44421 -1.1518,-0.24541 -1.5765,0.44177 -0.5443,0.88055 -1.1086,0.51118 -1.9116,-1.25114 -0.6266,-1.3753 -1.6582,-5.48063 -2.2925,-9.12294 -0.8825,-5.06736 -0.8671,-9.21357 0.065,-17.65735 1.0118,-9.16297 0.9896,-11.18002 -0.1309,-11.89012 -0.7422,-0.47034 -2.0857,-0.86206 -2.9855,-0.87048 -0.8998,-0.008 -4.3588,1.80286 -7.6866,4.02507 -3.3277,2.22221 -8.2165,6.41687 -10.8639,9.32146 -2.6474,2.9046 -5.9385,7.49893 -7.3135,10.20963 l -2.4999,4.92853 -0.5457,-5.5 c -0.3001,-3.025 -0.8276,-4.825 -1.1722,-4 -0.3446,0.825 -1.1637,3.975 -1.8203,7 -0.6566,3.025 -2.9872,10.14189 -5.1791,15.8153 -2.192,5.67342 -4.2065,10.09427 -4.4766,9.82417 -0.2701,-0.2702 0.2255,-2.9563 1.1014,-5.96923 0.8759,-3.01293 1.5925,-5.9713 1.5925,-6.57415 0,-0.60285 -0.7875,-1.10298 -1.75,-1.1114 -0.9625,-0.008 -2.3138,-0.37328 -3.0029,-0.81079 -0.7049,-0.44754 -1.9389,-5.73036 -2.8214,-12.07795 -0.8627,-6.20536 -2.4364,-13.99913 -3.4971,-17.31948 -1.0607,-3.32036 -1.9286,-7.272 -1.9286,-8.78143 0,-1.74703 1.9988,-5.48147 5.5,-10.27566 3.025,-4.14218 5.5,-8.02357 5.5,-8.62531 0,-0.60174 -0.2728,-1.09407 -0.6061,-1.09407 -0.3333,0 -1.4674,1.09497 -2.5201,2.43327 -1.2976,1.64962 -3.6776,2.79939 -7.3899,3.57008 -3.0118,0.62523 -6.4055,0.99276 -7.5416,0.81672 -1.902,-0.29471 -1.7438,-0.75037 1.996,-5.75068 2.2339,-2.98683 4.0617,-6.03043 4.0617,-6.76356 0,-0.73313 0.5625,-2.25427 1.25,-3.3803 1.0653,-1.74478 0.959,-2.26303 -0.7191,-3.50689 -1.083,-0.80275 -3.731,-1.93396 -5.8843,-2.5138 -2.1534,-0.57984 -4.9741,-0.78849 -6.2683,-0.46367 -1.2941,0.32482 -3.1198,1.7608 -4.0569,3.19106 -1.2637,1.92859 -1.9133,6.12305 -2.5141,16.23413 -0.4457,7.4985 -1.5008,18.47578 -2.3448,24.39396 -0.844,5.91818 -1.9349,11.76818 -2.4241,13 -0.5459,1.37452 -0.6655,-2.87861 -0.3095,-11.01032 0.3783,-8.64272 0.2286,-13.25 -0.4307,-13.25 -0.5559,0 -1.3023,3.49667 -1.6587,7.77039 -0.3564,4.27371 -1.3211,11.28829 -2.1438,15.58796 -0.8226,4.29967 -1.5409,10.3655 -1.5962,13.47962 l -0.1004,5.66203 -0.9326,-3.98414 c -0.6006,-2.56591 -0.5414,-7.72747 0.1663,-14.5 0.6043,-5.78372 1.3516,-16.69444 1.6605,-24.24604 0.3655,-8.93248 0.9176,-13.51028 1.5801,-13.10085 0.6583,0.40686 0.7704,-0.39555 0.317,-2.26982 -0.3857,-1.59453 -1.1382,-4.5664 -1.6722,-6.60415 -0.5341,-2.03775 -1.6907,-4.42468 -2.5704,-5.30429 -0.8796,-0.87961 -2.7749,-1.46236 -4.2117,-1.295 -2.1236,0.24735 -2.7215,0.95924 -3.1955,3.80429 -0.3207,1.925 -1.3242,4.85 -2.2301,6.5 -0.9058,1.65 -2.5462,4.125 -3.6453,5.5 l -1.9984,2.5 1.0655,-3.5257 c 0.7584,-2.50926 0.7523,-4.67147 -0.021,-7.5 -0.5976,-2.18587 -1.9856,-5.4368 -3.0842,-7.2243 -1.6866,-2.74415 -2.5878,-3.25 -5.7898,-3.25 -2.0857,0 -4.722,0.65127 -5.8584,1.44726 l -2.0663,1.44726 3.3416,17.30274 c 1.9771,10.23798 3.3361,20.36501 3.3284,24.80274 -0.01,4.125 -0.4493,8.175 -0.9825,9 -0.72,1.11412 -0.9733,0.52447 -0.9846,-2.29216 -0.01,-2.08569 -0.7253,-7.26069 -1.593,-11.5 -0.8677,-4.23931 -1.9927,-8.13534 -2.5,-8.65784 -0.5722,-0.58942 -0.9223,-0.18469 -0.9223,1.06634 0,1.10899 0.4552,4.47865 1.0115,7.48813 0.5563,3.00949 1.1634,11.30464 1.349,18.43366 0.1856,7.12903 0.6959,14.08687 1.1341,15.46187 0.7675,2.40855 0.7107,2.39329 -1.5528,-0.41693 -2.108,-2.61694 -2.4302,-4.36147 -3.1333,-16.96321 -0.4311,-7.72545 -1.7149,-18.33784 -2.8531,-23.58307 -1.1381,-5.24523 -2.329,-11.00832 -2.6465,-12.80686 -0.4837,-2.74097 -0.3127,-3.16862 1.057,-2.64302 0.8987,0.34489 1.6341,0.34289 1.6341,-0.004 0,-0.34733 -1.8458,-3.55417 -4.1019,-7.12631 -2.256,-3.57215 -4.9264,-6.93612 -5.9342,-7.47549 -1.0078,-0.5398 -3.4147,-0.98111 -5.3485,-0.98111 -2.3077,0 -3.8537,-0.60142 -4.4985,-1.75 -0.8291,-1.47683 -1.0649,-1.51585 -1.5111,-0.25 -0.2908,0.825 -0.6822,3.075 -0.8697,5 l -0.341,3.5 -1.6975,-3.71788 c -0.9337,-2.04484 -1.6976,-5.96195 -1.6976,-8.70469 0,-4.85869 0.083,-4.99943 3.25,-5.4781 1.7875,-0.27021 5.0136,-0.72466 7.1691,-1.00988 2.1555,-0.28522 4.2861,-1.09703 4.7347,-1.80402 0.4485,-0.70699 0.9022,-3.31043 1.008,-5.78543 0.1059,-2.475 0.062,-7.3701 -0.096,-10.878 -0.1844,-4.07283 0.073,-6.15425 0.713,-5.75891 0.5509,0.3405 2.1761,3.55284 3.6116,7.13852 1.4354,3.58569 2.6099,6.9647 2.6099,7.50891 0,0.54421 -0.708,0.98948 -1.5733,0.98948 -0.9549,0 -1.4463,0.68786 -1.25,1.75 0.1778,0.9625 2.0274,2.5825 4.1102,3.6 2.3627,1.15423 5.9756,1.85 9.6063,1.85 3.4169,0 7.1172,-0.67116 8.9631,-1.62568 2.6938,-1.39301 3.1437,-1.41544 3.1437,-0.1567 0,0.80793 1.0001,2.16949 2.2225,3.02568 1.2224,0.85618 4.182,1.5567 6.5769,1.5567 3.4488,0 4.9442,-0.58974 7.1899,-2.83548 1.5595,-1.55951 3.5622,-5.27201 4.4505,-8.25 0.8882,-2.97799 1.9072,-8.78952 2.2644,-12.91452 l 0.6494,-7.5 1.8004,7 c 0.9902,3.85 1.8106,8.6875 1.8231,10.75 0.019,3.09095 -0.3286,3.75 -1.9771,3.75 -1.1,0 -2,0.60526 -2,1.34501 0,0.73976 0.7875,2.02604 1.75,2.8584 0.9625,0.83236 3.2796,2.0271 5.1492,2.65499 1.8696,0.62788 4.925,1.1416 6.7898,1.1416 1.8649,0 5.1553,-0.90026 7.3121,-2.00058 l 3.9215,-2.00058 0.953,3.75058 c 0.5242,2.06282 1.2504,7.60925 1.6139,12.3254 l 0.6608,8.57483 -3.7251,3.72517 c -2.6195,2.61946 -3.4112,4.0392 -2.6673,4.78312 0.7439,0.74391 2.0943,0.71591 4.5494,-0.0943 1.9203,-0.63376 6.7992,-4.00476 10.8421,-7.49112 4.0428,-3.48636 9.5454,-8.6026 12.2281,-11.36942 4.4944,-4.63554 4.825,-5.31008 4.2097,-8.58964 -0.3672,-1.95748 -1.437,-4.0076 -2.3774,-4.55583 -1.3857,-0.80781 -1.0812,-1.00254 1.6059,-1.02718 1.8237,-0.0167 4.2077,0.44695 5.2979,1.03039 1.0902,0.58344 2.4633,2.27094 3.0513,3.75 0.5881,1.47906 1.3696,5.1642 1.7367,8.1892 l 0.6675,5.5 1.7555,-3.27778 1.7555,-3.27779 10.1027,8.61397 c 5.5566,4.73769 10.7007,8.8434 11.4314,9.12381 0.7308,0.28041 9.0135,-4.77096 18.4061,-11.22527 16.8995,-11.61281 17.0708,-11.76753 16.4351,-14.84602 -0.3534,-1.71101 -1.3307,-3.65097 -2.1718,-4.31102 -1.3176,-1.03389 -1.1784,-1.28819 1.0046,-1.83611 1.6013,-0.40188 4.254,0.12483 7.2066,1.43089 4.2373,1.87436 4.6232,2.32483 4.1424,4.8361 -0.2916,1.52307 -0.7998,4.79422 -1.1293,7.26922 -0.5673,4.26136 -0.5135,4.39394 1.015,2.5 0.8877,-1.1 1.9757,-2.62885 2.4178,-3.39744 0.6186,-1.07548 3.0563,0.30684 10.581,6 5.3774,4.06859 10.2724,8.21221 10.8777,9.20803 0.9101,1.4972 0.5813,2.24994 -1.8994,4.34886 -1.65,1.39604 -6.4875,5.53073 -10.75,9.18819 -4.2625,3.65746 -7.75,7.26546 -7.75,8.01778 0,0.82773 0.691,1.16916 1.75,0.86466 0.9625,-0.27674 2.65,-0.83325 3.75,-1.23668 1.1,-0.40344 -0.7,0.94739 -4,3.00184 -3.3,2.05444 -9.7154,6.2289 -14.2564,9.27658 -4.541,3.04767 -10.8719,8.05828 -14.0685,11.1347 -3.1966,3.07641 -6.5889,6.71848 -7.5384,8.09348 l -1.7263,2.5 0.5566,-4.25 c 0.4388,-3.35053 0.2407,-4.25 -0.9361,-4.25 -0.8211,0 -1.7908,1.2375 -2.1549,2.75 -0.3642,1.5125 -1.785,5 -3.1575,7.75 -1.3725,2.75 -4.1858,7.475 -6.252,10.5 -2.0661,3.025 -5.379,7.30003 -7.3621,9.50003 l -3.6056,4 3.7506,-7.16342 z m 6.8035,-27.83661 c 1.4504,-2.475 3.0444,-4.5 3.5421,-4.5 0.4977,0 0.905,0.9 0.905,2 0,1.1 0.5684,2 1.2632,2 0.6947,0 3.185,-2.46077 5.534,-5.46837 2.5957,-3.32356 7.7982,-7.88431 13.2641,-11.628 4.9464,-3.3878 10.9977,-8.1927 13.4475,-10.67756 2.4497,-2.48487 5.3624,-6.39434 6.4726,-8.68773 1.1102,-2.29338 2.0186,-4.99746 2.0186,-6.00905 0,-1.71851 -0.1201,-1.73061 -1.8288,-0.18428 -1.0058,0.91025 -2.3007,1.65499 -2.8775,1.65499 -0.5769,0 -1.609,-0.675 -2.2937,-1.5 -0.9635,-1.16088 -0.9765,-1.82335 -0.058,-2.93026 0.947,-1.14102 0.7908,-1.64233 -0.7724,-2.47889 -1.0776,-0.57675 -2.4534,-2.46594 -3.0573,-4.19819 -0.9741,-2.79422 -1.2962,-2.99993 -2.8552,-1.82328 -0.9665,0.72946 -3.2197,2.67554 -5.0072,4.32462 l -3.25,2.99833 -0.022,-2.44616 -0.022,-2.44617 -2.0355,2.5 c -1.1196,1.375 -6.1222,10.825 -11.1171,21 -6.4086,13.05509 -10.0895,19.38296 -12.5066,21.5 -3.1964,2.79965 -3.3789,3.28383 -2.7329,7.25 0.3807,2.3375 0.8407,4.25 1.0222,4.25 0.1815,0 1.5168,-2.025 2.9672,-4.5 z m -53.0529,1.5 c 0.3491,-1.1 1.1669,-2.06663 1.8174,-2.14806 0.6504,-0.0814 2.022,-0.19393 3.0479,-0.25 1.2099,-0.0661 2.4397,-1.5496 3.5,-4.22215 1.0706,-2.69849 4.9618,-7.36294 11.277,-13.51782 8.3399,-8.12822 9.8595,-10.12887 11.25,-14.81129 0.8842,-2.97753 1.6077,-6.00701 1.6077,-6.73218 0,-0.72518 -0.4235,-1.3185 -0.941,-1.3185 -0.5175,0 -1.2198,0.45122 -1.5607,1.0027 -0.4111,0.66521 -1.2832,0.64763 -2.5908,-0.0522 -1.0842,-0.58021 -1.8444,-1.60942 -1.6894,-2.28713 0.1551,-0.67771 -1.2074,-3.01671 -3.0277,-5.19778 l -3.3096,-3.96557 -3.4255,4 c -2.7251,3.18211 -3.4286,3.59836 -3.4404,2.03571 -0.013,-1.71117 -0.1929,-1.7756 -1.3963,-0.5 -0.7597,0.80536 -2.3361,4.39569 -3.503,7.97852 -1.167,3.58283 -2.7865,9.98855 -3.599,14.23494 -0.8124,4.24639 -2.149,9.32859 -2.9701,11.29378 -0.8211,1.96518 -2.4385,4.90104 -3.5943,6.52413 -1.8373,2.58026 -1.9566,3.38972 -0.9492,6.442 0.6336,1.92 1.5369,3.49092 2.0071,3.49092 0.4703,0 1.1408,-0.9 1.4899,-2 z m -0.2322,-14.75 c 0.8167,-2.0625 2.272,-8.15603 3.234,-13.54117 0.9621,-5.38514 1.5179,-10.02245 1.2352,-10.30512 -0.2826,-0.28267 -2.1385,2.08331 -4.1241,5.25774 -2.5822,4.12811 -3.4036,6.35072 -2.8845,7.80511 0.3991,1.11839 0.7221,3.38344 0.7178,5.03344 0,1.65 -0.3673,4.4625 -0.8065,6.25 -0.4874,1.98337 -0.4202,3.25 0.1723,3.25 0.5339,0 1.639,-1.6875 2.4558,-3.75 z m 55.3374,-0.41667 c 1.4467,-2.29167 4.4,-8.41893 6.5631,-13.61614 2.163,-5.19721 3.6447,-9.73471 3.2926,-10.08333 -0.3521,-0.34862 -1.6293,0.60364 -2.8381,2.11614 -1.2089,1.5125 -3.1935,2.75 -4.4104,2.75 -1.9099,0 -2.2124,0.54022 -2.2124,3.95078 0,2.17293 -0.481,6.19354 -1.0689,8.9347 -0.5878,2.74116 -1.7128,5.51841 -2.5,6.17167 -0.7871,0.65326 -1.4311,1.80764 -1.4311,2.56529 0,0.75766 0.4443,1.37756 0.9874,1.37756 0.5431,0 2.1711,-1.875 3.6178,-4.16667 z m -12.0053,-11.72298 c 2.1451,-1.58931 7.2507,-6.30115 11.346,-10.47075 4.0953,-4.16961 7.193,-7.83402 6.8839,-8.14315 -0.3092,-0.30912 -2.4841,1.04376 -4.8332,3.0064 -2.3492,1.96265 -6.5726,4.65717 -9.3853,5.98783 -3.0992,1.46612 -6.3942,4.08477 -8.3628,6.64614 -1.7867,2.32471 -3.2485,4.59495 -3.2485,5.04496 0,0.45002 0.8325,0.81822 1.8499,0.81822 1.0175,0 3.605,-1.30034 5.75,-2.88965 z m 2.4001,-18.38784 c 0,-0.70263 -0.6571,-2.21561 -1.4602,-3.36219 -0.8031,-1.14658 -2.8425,-2.65727 -4.5321,-3.3571 -1.6895,-0.69984 -3.3949,-0.94199 -3.7898,-0.53812 -0.3948,0.40386 1.2525,2.48943 3.6607,4.6346 2.4082,2.14516 4.7707,3.9003 5.25,3.9003 0.4793,0 0.8714,-0.57487 0.8714,-1.27749 z m 69.7839,-5.29751 c -0.6453,-1.41624 -2.4133,-3.21624 -3.9289,-4 -1.5157,-0.78375 -3.678,-1.425 -4.8054,-1.425 -1.1273,0 -2.0496,0.39675 -2.0496,0.88166 0,0.48491 2.1375,2.27962 4.75,3.98824 2.6125,1.70861 5.3028,3.11187 5.9785,3.11834 0.9572,0.009 0.9694,-0.55706 0.055,-2.56324 z m -186.0037,74.53097 c -0.2457,-1.67421 -0.072,-3.27577 0.3865,-3.55902 0.4583,-0.28324 0.8333,1.08657 0.8333,3.04403 0,1.95746 -0.1739,3.55899 -0.3865,3.55899 -0.2126,0 -0.5876,-1.36978 -0.8333,-3.044 z m -89.8997,-8.98053 c -3.5796,-3.69731 -5.0847,-6.53125 -8.2321,-15.5 -2.1183,-6.03649 -6.1218,-15.02544 -8.8967,-19.97544 -2.7748,-4.95 -7.7139,-12.97194 -10.9757,-17.82653 -4.2089,-6.26427 -5.3026,-8.4905 -3.7676,-7.66898 1.1896,0.63665 2.378,0.94242 2.6409,0.67948 0.263,-0.26293 -2.1381,-3.00607 -5.3356,-6.09585 -3.1975,-3.08978 -8.0396,-6.73611 -10.7601,-8.10295 -2.7204,-1.36685 -6.6314,-2.48517 -8.6909,-2.48517 -2.0596,0 -4.0228,-0.45 -4.3627,-1 -0.3399,-0.55 -1.0888,-1 -1.6641,-1 -0.6172,0 -0.8896,1.63956 -0.6645,4 0.2098,2.2 0.1105,4 -0.2207,4 -0.3311,0 -1.6765,-1.14371 -2.9898,-2.54158 -1.3132,-1.39786 -2.9468,-4.66036 -3.6302,-7.25 -0.6833,-2.58963 -1.2623,-5.27092 -1.2866,-5.95842 -0.032,-0.89876 2.1872,-1.25 7.8969,-1.25 4.3675,0 8.124,-0.3375 8.3478,-0.75 0.2237,-0.4125 -0.1147,-3.82091 -0.7521,-7.57425 -0.6375,-3.75334 -1.8065,-7.23395 -2.5978,-7.73469 -0.7914,-0.50074 -3.2389,-0.91391 -5.4389,-0.91816 -2.2,-0.004 -7.825,0.44222 -12.5,0.99215 -4.675,0.54993 -19.075,1.66942 -32,2.48776 -12.925,0.81833 -25.975,1.47567 -29,1.46073 -5.0354,-0.0249 -5.3372,-0.15031 -3.573,-1.48501 1.0598,-0.80183 1.6452,-1.73968 1.3007,-2.08413 -0.3444,-0.34444 -5.4866,-1.24547 -11.427,-2.00227 -5.9404,-0.75681 -14.4007,-2.07118 -18.8007,-2.92084 -4.4,-0.84965 -12.5568,-2.87862 -18.1262,-4.50882 -5.5695,-1.6302 -13.8945,-4.4923 -18.5,-6.36022 -4.6056,-1.86793 -11.9738,-5.07625 -16.3738,-7.12962 -4.4,-2.05336 -10.25,-4.57219 -13,-5.5974 -3.1989,-1.19255 -3.9193,-1.69652 -2,-1.39906 1.65,0.25573 10.4047,0.99087 19.4549,1.63365 10.5347,0.74822 28.1643,0.95761 49,0.582 18.1508,-0.3272 39.1794,-1.28702 47.5451,-2.1701 8.25,-0.87087 19.725,-2.26696 25.5,-3.10243 5.775,-0.83547 17.0553,-2.82861 25.0673,-4.42919 8.012,-1.60059 23.537,-5.20453 34.5,-8.00876 10.963,-2.80424 24.4327,-6.4495 29.9327,-8.10059 5.5,-1.65108 17.5877,-5.50381 26.8616,-8.56161 12.336,-4.06745 18.4805,-6.66805 22.8935,-9.68939 3.3175,-2.27136 6.9259,-5.32808 8.0186,-6.7927 1.3354,-1.78986 1.7837,-3.47197 1.3675,-5.13051 -0.3406,-1.35715 -1.456,-2.68635 -2.4786,-2.95377 -1.088,-0.2845 -2.1096,-1.73769 -2.4626,-3.50283 -0.3319,-1.65914 -0.8987,-4.30661 -1.2596,-5.88328 l -0.6563,-2.86666 1.6647,2.25 c 0.9155,1.2375 2.2418,2.25 2.9474,2.25 0.7055,0 1.8159,-1.1702 2.4676,-2.60044 0.6517,-1.43025 2.1142,-5.81775 3.2501,-9.75 1.767,-6.11713 2.2129,-11.80483 3.0874,-39.38724 0.5622,-17.73072 0.761,-32.91822 0.4418,-33.75 -0.3192,-0.83178 -1.4817,-1.51232 -2.5833,-1.51232 -1.3235,0 -5.5643,4.15533 -12.5019,12.25 -5.7745,6.7375 -11.7372,14.58242 -13.2505,17.43315 l -2.7515,5.18314 3.3247,7.81686 c 1.8286,4.29927 3.5273,8.71685 3.7748,9.81685 0.2476,1.1 -0.4564,0.36697 -1.5644,-1.62895 -1.108,-1.99593 -3.4163,-4.80843 -5.1295,-6.25 -1.7132,-1.44158 -4.1448,-2.62105 -5.4034,-2.62105 -1.2586,0 -3.4309,0.89866 -4.8272,1.99703 -1.5086,1.18667 -4.4505,6.39706 -7.2499,12.84033 -2.6346,6.06399 -7.4151,14.62768 -10.8461,19.42932 -3.3742,4.72231 -7.986,10.64417 -10.2485,13.15967 -2.2625,2.51551 -4.5731,4.57365 -5.1346,4.57365 -0.5616,0 0.4718,-2.8125 2.2965,-6.25 1.8247,-3.4375 4.4727,-10.23784 5.8846,-15.11187 1.4119,-4.87402 2.5671,-10.40654 2.5671,-12.29448 0,-1.88794 0.7347,-6.35753 1.6327,-9.93243 1.622,-6.45732 1.6178,-6.51567 -0.6468,-8.9262 -1.8861,-2.00766 -2.0612,-2.68939 -1.0147,-3.95038 0.6957,-0.83819 1.0038,-2.52229 0.6847,-3.74244 -0.352,-1.34601 0.057,-2.92224 1.0394,-4.00806 1.3815,-1.52652 1.4436,-2.37728 0.422,-5.78688 -0.8075,-2.6951 -1.7709,-3.99726 -2.9575,-3.99726 -0.9679,0 -2.2998,0.54 -2.9598,1.2 -0.66,0.66 -1.2,2.91 -1.2,5 0,2.09 -0.4597,3.8 -1.0215,3.8 -0.5617,0 -1.5331,1.12317 -2.1586,2.49594 -0.9325,2.04661 -0.8255,2.84041 0.5944,4.40943 1.6499,1.82305 1.635,1.94421 -0.3153,2.56321 -1.1259,0.35733 -2.8918,1.86059 -3.9243,3.34056 -1.0325,1.47997 -2.6842,4.83839 -3.6704,7.46315 -0.9862,2.62477 -1.9843,4.58108 -2.218,4.34736 -0.2337,-0.23372 0.1318,-2.28319 0.8123,-4.55439 0.9434,-3.14875 0.9598,-4.40682 0.069,-5.29736 -0.6424,-0.64234 -1.1679,-2.16837 -1.1679,-3.39117 0,-1.22281 1.1764,-3.62136 2.6142,-5.33012 1.4378,-1.70876 3.4922,-5.90579 4.5653,-9.32672 1.0732,-3.42094 3.0783,-10.94489 4.4558,-16.71989 1.3776,-5.775 3.5912,-15.9 4.9192,-22.5 1.328,-6.6 3.5188,-14.925 4.8685,-18.5 1.3497,-3.575 2.7093,-7.71414 3.0215,-9.19809 0.3121,-1.48394 2.7398,-5.53394 5.3948,-9 2.655,-3.46605 5.394,-7.36272 6.0866,-8.65927 0.8932,-1.6719 0.9488,-2.66796 0.1912,-3.42555 -0.7576,-0.7576 -3.4297,-0.56074 -9.1897,0.67701 -4.4668,0.95987 -8.29,1.57666 -8.496,1.37064 -0.206,-0.20601 2.8751,-2.11098 6.847,-4.23327 3.9719,-2.12229 10.3726,-5.95435 14.2238,-8.5157 3.8513,-2.56135 10.8263,-7.69608 15.5,-11.41051 4.6738,-3.71443 10.0206,-8.06106 11.8819,-9.65919 3.0151,-2.58885 3.3194,-3.30425 2.7909,-6.56102 -0.5153,-3.17586 -0.4222,-3.42151 0.7103,-1.87273 0.9508,1.30028 2.022,1.60226 3.9591,1.11609 1.4606,-0.36658 2.6556,-1.1112 2.6556,-1.6547 0,-0.5435 -2.7396,-4.69742 -6.088,-9.23095 -3.3485,-4.53352 -8.411,-11.58703 -11.25,-15.67447 -2.8391,-4.08745 -5.7928,-7.63519 -6.5637,-7.88388 -1.0277,-0.33153 -1.2427,0.15557 -0.8059,1.82576 0.3276,1.25286 0.2314,1.87561 -0.2138,1.38388 -0.4452,-0.49173 -3.3047,-4.49405 -6.3544,-8.89405 -3.0497,-4.4 -8.6228,-11.46578 -12.3846,-15.70174 -3.7618,-4.23595 -10.3102,-10.5677 -14.5519,-14.07055 -4.2418,-3.50286 -10.0194,-7.62448 -12.8391,-9.15917 -3.7595,-2.04615 -5.4231,-2.49403 -6.2379,-1.67931 -0.8147,0.81472 -0.5185,4.11144 1.1107,12.36091 1.222,6.18742 2.685,16.5892 3.2513,23.11505 0.7076,8.15374 0.7059,16.44299 0,26.5 -0.5692,8.04915 -2.1653,20.93481 -3.5469,28.63481 -1.3816,7.7 -2.5139,15.7625 -2.5163,17.91667 0,2.15416 -0.1774,3.72916 -0.3891,3.5 -0.2117,-0.22917 -0.904,-10.31667 -1.5385,-22.41667 -0.6344,-12.1 -1.5995,-26.725 -2.1446,-32.5 -0.5452,-5.775 -1.4929,-13.12037 -2.1061,-16.32305 -0.6132,-3.20267 -1.757,-6.46517 -2.5418,-7.25 -0.7851,-0.78482 -1.8596,-1.42695 -2.3881,-1.42695 -0.5284,0 -1.3291,0.99583 -1.7794,2.21295 l -0.8186,2.21295 -1.1492,-2.14721 c -0.632,-1.18096 -1.1632,-5.43929 -1.1804,-9.46295 l -0.031,-7.31574 -2.4017,4.90326 c -1.3209,2.6968 -5.0053,7.5343 -8.1874,10.75 -3.1822,3.21571 -6.3149,5.84674 -6.9617,5.84674 -0.8471,0 -0.9325,-1.04886 -0.3052,-3.75 0.479,-2.0625 0.8816,-4.33906 0.8947,-5.05902 0.013,-0.71996 -0.4326,-1.02692 -0.9904,-0.68215 -0.5579,0.34478 -1.9383,2.43792 -3.0675,4.65142 -1.1292,2.21351 -2.4613,6.57048 -2.9602,9.68215 -0.8053,5.02358 -1.463,6.16189 -5.8683,10.1576 -2.7287,2.475 -6.8154,6.13953 -9.0815,8.14341 -4.0862,3.61324 -4.1159,3.62152 -3.5888,1 0.2923,-1.45388 1.0412,-5.69535 1.6642,-9.42549 0.6231,-3.73015 0.9162,-7.6106 0.6514,-8.62323 -0.368,-1.40698 -0.04,-1.72563 1.3917,-1.35129 1.2681,0.33161 1.8733,-0.0394 1.8733,-1.14851 0,-0.9011 -2.4396,-4.07794 -5.4213,-7.05965 -3.898,-3.89795 -5.2781,-5.96889 -4.9117,-7.37014 0.2803,-1.07187 2.9283,-4.27835 5.8845,-7.12551 3.5121,-3.38256 6.5785,-7.67916 8.8479,-12.39739 1.9101,-3.97141 5.2554,-9.45307 7.4339,-12.18147 2.1784,-2.7284 5.4696,-6.069 7.3137,-7.42355 l 3.353,-2.46282 -3.117,3.96282 c -1.7143,2.17955 -4.1092,5.92086 -5.3219,8.31403 -1.3145,2.59391 -2.5639,7.64222 -3.0937,12.5 -0.4887,4.48183 -1.3891,9.87849 -2.0009,11.99256 -0.6118,2.11408 -0.8442,4.11193 -0.5164,4.43967 0.3277,0.32774 1.286,-0.38946 2.1296,-1.59377 1.0777,-1.53866 2.5669,-2.18967 5.0091,-2.18967 1.9115,0 4.9234,-0.60532 6.6933,-1.34515 1.7698,-0.73983 5.8054,-4.14048 8.9679,-7.557 4.733,-5.11321 5.75,-6.834 5.75,-9.7296 0,-1.98693 -4.1043,-14.52582 -9.4314,-28.81374 -5.1872,-13.9128 -13.0622,-34.78161 -17.5,-46.37513 -4.4377,-11.59353 -8.0686,-21.77669 -8.0686,-22.62926 0,-0.85257 0.4215,-1.55012 0.9368,-1.55012 0.5152,0 3.9471,2.06095 7.6264,4.57989 3.6793,2.51895 7.3245,4.82352 8.1004,5.12129 0.776,0.29776 2.2941,-0.25794 3.3736,-1.23489 1.6979,-1.53652 1.9679,-3.1388 2.0004,-11.87128 0.022,-5.94706 0.8182,-13.79303 1.9374,-19.09501 l 1.8998,-9 -0.581,8 c -0.3196,4.4 -0.5813,12.275 -0.5815,17.5 -3e-4,7.14737 0.5191,10.92943 2.0974,15.27212 1.1538,3.17466 3.5801,7.83626 5.3919,10.35909 1.8118,2.52284 7.1884,7.69248 11.948,11.48809 4.7596,3.79562 11.1731,9.62218 14.2521,12.94791 3.0791,3.32573 5.5983,6.51284 5.5983,7.08246 0,0.56962 -2.3625,-1.10251 -5.25,-3.71584 -2.8875,-2.61334 -7.7966,-6.40849 -10.909,-8.43367 -3.1125,-2.02519 -7.075,-4.26867 -8.8057,-4.98552 -2.2375,-0.9268 -3.4561,-0.99383 -4.218,-0.232 -0.7618,0.76183 -0.7081,2.99652 0.1859,7.73455 0.6915,3.66476 3.1595,10.5601 5.4843,15.323 2.3249,4.7629 6.0192,10.90981 8.2097,13.65981 2.1904,2.75 9.0982,10.4 15.3505,17 6.2524,6.6 21.4164,22.40982 33.6977,35.13294 12.2814,12.72311 24.5803,25.99811 27.3309,29.5 2.7507,3.50188 5.8497,7.37956 6.8868,8.61706 1.0371,1.2375 2.361,2.25 2.9422,2.25 0.5811,0 1.363,-1.22074 1.7374,-2.71276 0.3745,-1.49202 0.1914,-5.04668 -0.407,-7.89925 -0.5983,-2.85256 -4.4662,-12.54432 -8.5953,-21.53723 -4.1291,-8.99292 -8.8359,-19.72576 -10.4595,-23.85076 -1.6236,-4.125 -7.3265,-19.2 -12.6731,-33.5 -5.3466,-14.3 -10.4179,-26.7875 -11.2695,-27.75 -0.8515,-0.9625 -1.891,-1.75 -2.31,-1.75 -0.4189,0 -1.1511,1.16826 -1.627,2.59613 -0.6876,2.06271 -1.6297,-1.37882 -4.585,-16.75 -2.0458,-10.64037 -4.2095,-23.84613 -4.8081,-29.34613 -0.5987,-5.5 -0.783,-13.825 -0.4096,-18.5 0.3734,-4.675 1.3341,-12.31475 2.1349,-16.97722 0.8008,-4.66248 3.1969,-16.13748 5.3246,-25.5 2.1278,-9.36253 5.061,-23.32278 6.5182,-31.02278 1.4573,-7.7 3.9958,-19.4 5.6413,-26 1.6454,-6.6 4.527,-17.175 6.4036,-23.5 1.8765,-6.325 4.9961,-18.12631 6.9323,-26.22512 1.9363,-8.09882 4.1646,-16.19882 4.9519,-18 0.7873,-1.80119 1.4681,-2.74727 1.513,-2.10241 0.045,0.64486 -1.6815,8.51986 -3.8365,17.5 -2.1549,8.98014 -4.8324,21.27753 -5.9499,27.32753 -1.1175,6.05 -2.7657,16.4 -3.6625,23 -0.8969,6.6 -2.5251,19.2 -3.6182,28 -1.4187,11.42072 -2.1472,25.07047 -2.5455,47.69221 -0.3729,21.17388 -0.1663,35.44515 0.6223,43 0.6491,6.21928 2.1004,15.58279 3.225,20.80779 1.1246,5.225 3.5938,14.225 5.487,20 1.8933,5.775 6.1355,15.9707 9.4271,22.65711 4.1152,8.3594 7.2075,13.26182 9.8991,15.69349 2.1529,1.94501 5.4573,3.82584 7.343,4.17961 1.8858,0.35377 4.5001,0.4917 5.8097,0.30651 2.1525,-0.3044 2.3769,-0.81659 2.3388,-5.33672 -0.023,-2.75 -0.3624,-6.8 -0.7537,-9 -0.3913,-2.2 0.5972,0.725 2.1968,6.5 1.5996,5.775 3.839,12.84829 4.9766,15.71841 1.1376,2.87013 3.8423,8.72013 6.0103,13 2.1681,4.27988 5.934,10.62159 8.3688,14.09271 2.4348,3.47111 6.8057,8.75861 9.7132,11.75 3.0479,3.1359 6.1639,5.43888 7.3591,5.43888 1.2167,0 4.4634,-2.45816 7.8604,-5.95129 3.1831,-3.27321 8.068,-9.44464 10.8552,-13.7143 2.7873,-4.26965 6.5647,-10.92907 8.3944,-14.79871 1.8296,-3.86963 4.4849,-10.6357 5.9006,-15.0357 1.4158,-4.4 3.0307,-9.35 3.5888,-11 0.8737,-2.58274 0.9338,-2.34177 0.4323,1.73258 -0.5469,4.44342 -0.419,4.79473 2.0936,5.75 1.4718,0.55958 4.8182,1.01742 7.4366,1.01742 3.6578,0 5.2394,-0.52121 6.8275,-2.25 1.1369,-1.2375 3.6862,-5.49297 5.6651,-9.45661 1.9789,-3.96363 5.3484,-11.61363 7.4878,-17 2.1393,-5.38636 5.4841,-14.74339 7.4328,-20.79339 1.9486,-6.05 4.5779,-16.175 5.8428,-22.5 2.1547,-10.77472 2.2937,-13.73891 2.2034,-47 -0.065,-23.8631 -0.6317,-41.5643 -1.7295,-54 -0.8982,-10.175 -2.5201,-24.43413 -3.6042,-31.68697 -1.084,-7.25283 -3.5827,-21.36385 -5.5526,-31.35783 -1.9699,-9.99397 -3.4133,-18.33916 -3.2076,-18.54485 0.2057,-0.2057 3.6035,11.65532 7.5508,26.35783 3.9472,14.7025 9.1915,35.28182 11.654,45.73182 2.4625,10.45 6.0559,27.39501 7.9854,37.65558 1.9295,10.26058 4.2398,24.21058 5.1341,31 1.1817,8.97125 1.4853,16.7165 1.1111,28.34442 -0.4375,13.59335 -1.0486,18.31272 -4.0622,31.37552 -1.951,8.45653 -3.8152,15.6435 -4.1427,15.97104 -0.3276,0.32753 -1.0048,-0.0665 -1.505,-0.87552 -0.7986,-1.29166 -1.0903,-1.28813 -2.3927,0.029 -0.8158,0.825 -4.4727,9.15 -8.1265,18.5 -3.6538,9.35 -9.5817,24.875 -13.1733,34.5 -3.5915,9.625 -8.3008,21.02717 -10.4651,25.33816 -2.1644,4.31098 -5.9605,12.78317 -8.4359,18.82709 -2.4755,6.04391 -4.756,13.1434 -5.0678,15.77663 -0.3554,3.00062 -0.1555,5.04207 0.5355,5.46916 0.6065,0.3748 2.0193,0.19089 3.1396,-0.40867 1.1203,-0.59957 5.49,-5.45788 9.7106,-10.79625 4.2205,-5.33837 11.2524,-13.75612 15.6265,-18.70612 4.3741,-4.95 18.8011,-20.42221 32.0601,-34.38269 13.2589,-13.96049 25.8444,-27.6844 27.9678,-30.49759 2.1233,-2.81319 5.1334,-7.63643 6.6891,-10.7183 1.5558,-3.08187 3.756,-8.35626 4.8895,-11.72087 1.1334,-3.36464 2.0608,-7.48169 2.0608,-9.14904 0,-2.26761 -0.4598,-3.03155 -1.8244,-3.03155 -1.0034,0 -5.8409,2.66591 -10.75,5.92425 -4.9091,3.25833 -11.1756,8.09556 -13.9256,10.7494 -3.813,3.67964 -4.544,4.11309 -3.0794,1.82576 1.0564,-1.64968 3.7522,-5.18182 5.9907,-7.84921 2.2386,-2.66739 8.2065,-7.94525 13.2622,-11.72859 5.0556,-3.78334 10.3338,-8.3757 11.7293,-10.20526 1.3954,-1.82955 3.499,-5.5009 4.6746,-8.15854 1.8187,-4.11132 2.2077,-7.31013 2.6083,-21.44495 0.259,-9.13707 0.7238,-17.28786 1.0329,-18.11286 0.3091,-0.825 1.1543,1.2 1.8781,4.5 0.7238,3.3 1.3357,10.30906 1.3597,15.57569 0.04,8.68634 0.2585,9.77762 2.358,11.75 1.273,1.19587 2.9676,2.17431 3.7659,2.17431 0.7983,0 4.5475,-1.80926 8.3316,-4.02057 3.7842,-2.21132 7.1266,-3.77422 7.4277,-3.47311 0.3011,0.3011 -0.2792,3.86741 -1.2897,7.92512 -1.0104,4.05772 -1.5799,8.04801 -1.2655,8.86732 0.3144,0.81931 2.0665,2.59533 3.8936,3.94672 1.8271,1.35138 7.597,4.12923 12.822,6.17299 5.225,2.04376 12.0256,5.20463 15.1125,7.02416 l 5.6126,3.30824 22.8874,-0.50768 c 21.538,-0.47775 23.1656,-0.64729 27.6042,-2.87544 2.5943,-1.30226 6.2381,-2.36775 8.0974,-2.36775 2.3688,0 5.8958,1.59724 11.7833,5.33614 4.6214,2.93487 15.7707,10.52125 24.7761,16.85862 9.0055,6.33737 19.2187,12.98172 22.696,14.76523 3.4773,1.7835 6.9092,3.04316 7.6264,2.79923 0.727,-0.24725 -0.466,-1.36233 -2.6959,-2.51985 -2.2,-1.142 -6.6081,-4.41741 -9.7958,-7.2787 -3.1878,-2.86129 -5.659,-5.33918 -5.4918,-5.50642 0.1672,-0.16724 3.0004,0.33352 6.2958,1.1128 3.2955,0.77928 14.5418,2.11524 24.9918,2.9688 10.45,0.85356 24.17497,2.47849 30.49997,3.61097 7.8855,1.41187 14.2115,1.93174 20.1268,1.65402 7.1947,-0.33778 9.7092,-0.93782 15.1462,-3.61445 4.457,-2.1942 8.4489,-5.27228 12.6195,-9.7306 3.3551,-3.58664 7.0068,-8.29815 8.1148,-10.47002 1.108,-2.17187 2.6151,-7.66967 3.3492,-12.21732 l 1.3347,-8.26845 0.7884,5.90044 c 0.4337,3.24524 0.506,9.09524 0.1609,13 -0.3452,3.90476 -1.902,11.14956 -3.4597,16.09956 -1.5576,4.95 -4.3232,12.9453 -6.1457,17.76734 -3.2169,8.51138 -3.2607,8.82591 -1.498,10.77363 1.0667,1.17872 1.4335,2.33282 0.8893,2.79791 -0.5095,0.4354 -4.0359,3.46226 -7.8365,6.72637 -3.8005,3.26411 -10.6068,10.88475 -15.1251,16.93475 -4.5183,6.05 -10.4087,13.09047 -13.0899,15.64548 -4.2015,4.00373 -6.1587,5.00947 -14.1683,7.28027 -5.1114,1.44914 -11.7079,3.53816 -14.6589,4.64228 -2.95097,1.10412 -5.91157,2.6655 -6.57897,3.46973 -0.9651,1.16278 -0.9311,1.46224 0.1656,1.46224 0.7586,0 6.45397,-1.14317 12.65647,-2.54039 l 11.2772,-2.54038 9.216,3.91968 c 5.0688,2.15582 11.6006,4.42399 14.5152,5.04038 2.9146,0.61639 11.1924,1.12071 18.3952,1.12071 12.4986,0 13.29,-0.12282 17.3523,-2.69283 2.3411,-1.48106 5.4075,-4.46792 6.8142,-6.63747 1.4068,-2.16954 2.859,-5.95314 3.2271,-8.408 0.4544,-3.03037 0.9442,-4.02967 1.5254,-3.11253 0.4708,0.74296 0.8629,5.71618 0.8713,11.05161 0.01,5.33543 -0.4904,12.08543 -1.1086,15 -0.6181,2.91457 -4.4977,12.94922 -8.6213,22.29922 -4.1237,9.35 -9.014,21.41008 -10.8675,26.80017 -1.8534,5.3901 -4.3214,14.3901 -5.4843,20 -1.7471,8.42779 -2.0149,12.28461 -1.5417,22.19983 0.315,6.6 1.4654,17.4 2.5564,24 1.0911,6.6 2.4573,19.425 3.0362,28.5 0.5788,9.075 1.5221,18.1875 2.0963,20.25 0.5741,2.0625 1.4852,3.75 2.0247,3.75 0.6071,0 0.7312,-2.43625 0.3256,-6.39495 -0.3603,-3.51722 -0.343,-9.72653 0.039,-13.79848 0.3816,-4.07194 1.1172,-8.05671 1.6347,-8.85505 0.7785,-1.20103 1.2883,-1.02009 2.954,1.04848 1.1072,1.375 5.3881,8.63268 9.5131,16.12819 4.125,7.4955 8.844,15.48351 10.4866,17.75113 1.6742,2.31106 6.7963,6.64938 11.6554,9.87182 4.7678,3.16187 8.8448,6.28967 9.0601,6.95065 0.2154,0.66099 -2.0044,3.58599 -4.9328,6.5 -2.9285,2.91402 -6.9494,6.74132 -8.9355,8.50512 -1.9861,1.7638 -6.5538,7.6138 -10.1504,13 -3.5967,5.3862 -10.2289,14.03253 -14.7384,19.21407 -4.5094,5.18154 -10.6404,13.12812 -13.6244,17.65906 -2.984,4.53095 -8.4613,11.09151 -12.1717,14.57903 -4.6232,4.34557 -10.3561,8.26247 -18.2179,12.44727 -6.3096,3.35849 -16.4219,9.25879 -22.4719,13.11178 -6.05,3.85299 -13.3475,8.19263 -16.21677,9.64366 -4.3517,2.20075 -6.5073,2.6293 -13,2.58444 l -7.7832,-0.0538 5.7023,-1.82325 c 3.1363,-1.00279 7.773,-3.03678 10.3039,-4.51998 2.5309,-1.48321 8.51487,-5.98181 13.29767,-9.9969 4.7829,-4.01509 12.7641,-11.7444 17.7361,-17.17624 4.972,-5.43185 10.6716,-11.90121 12.6658,-14.37638 1.9943,-2.47516 4.8145,-6.86675 6.2672,-9.75908 1.4528,-2.89233 5.266,-12.3422 8.4738,-20.9997 3.2078,-8.65751 6.6308,-17.81531 7.6065,-20.35068 1.7548,-4.5596 1.7462,-4.70103 -0.7912,-13 -1.4109,-4.61463 -3.3232,-11.02731 -4.2495,-14.2504 -0.9263,-3.22309 -4.7565,-12.22309 -8.5116,-20 -3.755,-7.77691 -7.7407,-17.14166 -8.8571,-20.81055 -1.1164,-3.66889 -3.2087,-8.99699 -4.6494,-11.84021 -1.4408,-2.84323 -4.5035,-7.21331 -6.8061,-9.71129 -2.3025,-2.49797 -6.5776,-5.89125 -9.5001,-7.54061 -2.9225,-1.64936 -6.0071,-4.05726 -6.8548,-5.35089 -1.1919,-1.81917 -1.3066,-2.97897 -0.5063,-5.11917 0.5691,-1.52192 2.8939,-7.00187 5.1661,-12.17767 2.2722,-5.17581 5.2283,-13.50081 6.5691,-18.5 1.3408,-4.9992 2.9622,-13.81445 3.6032,-19.58945 0.641,-5.775 0.8361,-12.23778 0.4336,-14.36173 -0.4024,-2.12395 -1.8065,-4.93645 -3.12,-6.25 -1.5867,-1.58672 -3.5363,-2.38827 -5.8087,-2.38827 -1.8813,0 -4.8154,-0.27899 -6.5204,-0.61997 -2.6201,-0.52403 -3.3971,-1.41387 -5.0207,-5.75 -1.0565,-2.82152 -1.7019,-5.49075 -1.4343,-5.93162 0.2677,-0.44088 3.5958,-0.49524 7.3958,-0.12079 4.6185,0.45509 6.9091,0.33025 6.9091,-0.37656 0,-0.58155 -2.4919,-1.98969 -5.5375,-3.12921 -3.0456,-1.13952 -6.5891,-2.07185 -7.8743,-2.07185 -1.2852,0 -4.30577,0.69998 -6.71247,1.55551 -2.4066,0.85553 -7.4773,2.21282 -11.2681,3.01621 -3.7909,0.80338 -8.9428,2.36764 -11.4487,3.47612 -2.5059,1.10849 -6.917,3.83679 -9.8024,6.06289 -2.8855,2.22611 -9.381,8.78983 -14.4345,14.58605 l -9.1882,10.53859 -4.4477,-0.60963 c -2.4462,-0.3353 -5.2572,-0.17638 -6.2467,0.35314 -0.9894,0.52953 -2.5704,2.8884 -3.5133,5.24195 -0.9428,2.35354 -2.347,7.58126 -3.1202,11.61714 -0.7737,4.03591 -1.4063,11.49508 -1.4063,16.57596 0,5.08088 0.6707,14.01574 1.4904,19.85525 0.8197,5.83951 1.2032,11.43035 0.8521,12.42407 -0.3511,0.99373 -1.6329,3.15678 -2.8485,4.80678 -1.2157,1.65 -3.4114,5.37176 -4.8794,8.27059 -2.2493,4.44157 -2.9488,5.1209 -4.4473,4.31897 -0.9779,-0.52339 -2.6532,-2.67016 -3.7227,-4.77059 -1.0695,-2.10043 -3.5654,-6.29397 -5.5464,-9.31897 -1.981,-3.025 -4.1799,-7.26761 -4.8863,-9.42802 -0.8858,-2.70875 -1.0881,-6.74399 -0.6518,-13 0.348,-4.98959 0.8888,-10.42198 1.2019,-12.07198 0.5251,-2.76757 0.455,-2.85926 -0.9053,-1.1834 -0.8111,0.99913 -1.9656,4.63599 -2.5657,8.08192 -0.6,3.44592 -1.0877,9.60345 -1.0836,13.68339 0.01,4.90875 0.9745,11.1391 2.8665,18.41809 1.5725,6.05 4.6669,17.75 6.8765,26 2.2096,8.25 5.1792,19.95 6.599,26 1.4199,6.05 3.7221,17.21746 5.1161,24.81657 1.6516,9.00362 2.5345,17.3953 2.5345,24.09004 0,6.95759 -0.6376,12.76644 -1.9755,17.99738 -1.0865,4.24815 -3.352,10.28264 -5.0346,13.40996 -1.6826,3.12733 -4.3991,7.26105 -6.0366,9.18605 l -2.9775,3.5 1.8819,-4.52904 c 1.035,-2.49097 2.3759,-6.83286 2.9797,-9.64864 0.6039,-2.81578 1.3826,-12.92771 1.7305,-22.47096 0.624,-17.11573 0.5964,-17.44642 -2.0346,-24.35136 -1.4669,-3.85 -4.2546,-9.925 -6.1949,-13.5 -1.9403,-3.575 -6.5944,-10.59699 -10.3425,-15.60443 -3.7481,-5.00743 -7.9294,-11.30743 -9.2917,-14 -1.3624,-2.69256 -3.478,-8.27057 -4.7013,-12.39557 -1.2234,-4.125 -2.8819,-8.77789 -3.6857,-10.33975 -1.3646,-2.65163 -1.5801,-2.7323 -3.2538,-1.21768 -0.9858,0.89214 -4.2628,6.44502 -7.2823,12.33975 -3.0195,5.89472 -6.4981,13.28133 -7.7302,16.41467 -1.3554,3.44687 -3.289,6.37684 -4.8955,7.41826 -1.4605,0.9467 -6.0304,4.71293 -10.1554,8.3694 -4.125,3.65647 -9.75,8.25194 -12.5,10.21216 -2.75,1.96022 -8.6,5.35433 -13,7.54247 -4.4,2.18814 -10.925,4.92743 -14.5,6.08731 -3.575,1.15988 -8.4125,2.52556 -10.75,3.03485 -2.3375,0.50928 -4.25,0.5865 -4.25,0.17159 0,-0.41491 2.5875,-2.13541 5.75,-3.82334 3.1625,-1.68793 9.0154,-5.3644 13.0065,-8.16993 3.991,-2.80553 11.7306,-9.39539 17.1991,-14.64412 l 9.9426,-9.54315 -0.5211,3.82375 -0.5211,3.82376 2.0155,-2.291 c 1.1085,-1.26005 2.9063,-4.6721 3.9952,-7.58233 1.0889,-2.91023 2.2887,-6.9384 2.6664,-8.95147 0.3777,-2.01308 0.4214,-4.35124 0.097,-5.19591 -0.4653,-1.21255 -1.7594,-0.58274 -6.1488,2.99247 -4.0898,3.33117 -6.4083,4.51664 -8.7705,4.48435 l -3.2111,-0.0439 4,-1.40441 c 2.2,-0.77243 5.4213,-3.03004 7.1585,-5.01691 1.7372,-1.98687 4.0774,-5.94763 5.2005,-8.80169 1.1231,-2.85406 2.9221,-8.1142 3.9979,-11.6892 1.3813,-4.5903 1.9835,-5.67471 2.0495,-3.69098 0.053,1.59983 0.524,2.54297 1.0936,2.19098 0.5933,-0.36668 1.0129,-6.79613 1.0318,-15.80902 0.027,-12.78115 0.2407,-14.91583 1.3488,-13.45652 0.7244,0.95395 1.6101,1.44145 1.9682,1.08333 0.3582,-0.35812 0.6512,-2.28802 0.6512,-4.28868 0,-2.29207 -1.0677,-5.32115 -2.8866,-8.18922 -1.9188,-3.02561 -4.3716,-5.27053 -7.3157,-6.69578 -2.4361,-1.17926 -5.4344,-2.14411 -6.6631,-2.14411 -1.2287,0 -3.51,0.65988 -5.0697,1.46641 -1.5596,0.80653 -5.1373,4.22088 -7.9503,7.58745 -2.813,3.36657 -5.1146,6.74811 -5.1146,7.51453 0,0.76643 1.03,1.65204 2.289,1.96802 1.259,0.31598 3.6215,0.0709 5.25,-0.54457 1.6285,-0.61549 4.1938,-2.29514 5.7006,-3.73256 1.5067,-1.43741 2.9992,-2.35378 3.3166,-2.03638 0.3174,0.31741 -0.9566,2.11081 -2.8311,3.98535 -1.9485,1.94851 -6.0399,4.36778 -9.5527,5.64861 -3.3794,1.2322 -8.0327,3.68099 -10.3407,5.44175 -2.3079,1.76077 -5.7901,5.42078 -7.7383,8.13337 -1.9481,2.71259 -5.4603,9.68759 -7.8047,15.5 -3.5195,8.72534 -4.265,9.96278 -4.2757,7.09691 l -0.013,-3.47111 -6.3841,6.32733 c -5.3408,5.29329 -7.5061,6.69049 -13.25,8.54959 -4.9519,1.60274 -7.2103,2.89732 -8.1012,4.64378 -0.6794,1.33184 -1.2628,4.44652 -1.2965,6.92152 l -0.061,4.5 -2.408,-4.62287 c -1.3244,-2.54258 -3.7802,-5.77746 -5.4573,-7.18863 -1.685,-1.41783 -2.6001,-2.84333 -2.0454,-3.18615 0.5521,-0.34121 1.0038,-1.45736 1.0038,-2.48033 0,-1.02297 -0.6322,-3.13391 -1.4049,-4.69098 -0.7727,-1.55707 -1.7852,-4.13443 -2.25,-5.72746 -0.4648,-1.59302 -1.5949,-3.36693 -2.5113,-3.94201 -1.2172,-0.76383 -2.1233,-0.66625 -3.3623,0.36209 -1.3662,1.13383 -1.5762,2.42841 -1.0795,6.65444 0.3391,2.88572 1.1369,6.38866 1.7728,7.78433 0.6359,1.39566 1.6465,2.55125 2.2457,2.56798 0.5992,0.0167 0.277,0.50305 -0.716,1.08071 -0.993,0.57767 -2.1983,2.08359 -2.6784,3.3465 -0.5809,1.5279 -0.06,6.93801 1.5584,16.16928 1.3372,7.63021 3.1405,16.3481 4.0071,19.3731 0.8666,3.025 2.7239,7.48008 4.1272,9.90017 l 2.5515,4.40017 -3.5572,-2.71318 c -1.9564,-1.49225 -5.3463,-5.04733 -7.5331,-7.90017 -2.1867,-2.85285 -7.5404,-11.6413 -11.897,-19.5299 -4.3566,-7.88861 -9.1445,-15.87611 -10.6397,-17.75 -1.4952,-1.8739 -3.2452,-3.40709 -3.8889,-3.40709 -0.6436,0 -3.5495,2.51595 -6.4573,5.59099 -2.9079,3.07505 -5.2871,5.37419 -5.2871,5.1092 0,-0.26498 0.8901,-2.44342 1.978,-4.84099 1.2056,-2.65674 1.9764,-6.50719 1.9738,-9.8592 0,-3.08789 -0.7603,-7.13622 -1.728,-9.23084 -0.9481,-2.05196 -6.3886,-9.13946 -12.09,-15.75 -6.1931,-7.18054 -11.1008,-12.01916 -12.191,-12.01916 -1.0036,0 -2.0541,0.37105 -2.3344,0.82457 -0.2803,0.45351 -0.1037,14.74101 0.3923,31.75 0.7455,25.56277 1.2542,32.35437 2.9332,39.16588 1.1172,4.53224 2.7077,9.85938 3.5344,11.83807 0.8525,2.04023 2.0505,3.41709 2.7675,3.18059 0.6953,-0.22938 1.8614,-1.50651 2.5914,-2.83808 1.3055,-2.38149 1.3162,-2.37203 0.652,0.57897 -0.3713,1.65 -1.2267,5.6689 -1.9008,8.93089 -0.9166,4.43547 -1.4142,5.44404 -1.9734,4 -0.7382,-1.90594 -0.7663,-1.9058 -2.1764,0.0102 -0.7858,1.06762 -1.4286,2.71937 -1.4286,3.67054 0,1.10849 1.0771,1.966 3,2.38833 1.65,0.3624 3,1.24579 3,1.96309 0,0.7173 1.6986,2.83877 3.7747,4.71437 3.3582,3.03395 7.3576,4.4796 36.25,13.10299 17.8614,5.33104 38.7753,11.28243 46.4753,13.22531 7.7,1.94289 20.975,4.83902 29.5,6.43586 8.525,1.59684 23.15,3.81734 32.5,4.93445 9.35,1.11712 23.3,2.6145 31,3.32752 9.1162,0.84417 30.1462,1.29228 60.2855,1.28457 28.2997,-0.007 45.2031,0.33247 43.5,0.87421 -1.532,0.48733 -10.2105,4.04385 -19.2855,7.90339 -9.075,3.85954 -20.2456,8.28631 -24.8236,9.83727 -4.578,1.55096 -12.453,3.71402 -17.5,4.80681 -5.047,1.09279 -14.3514,2.47246 -20.6764,3.06594 -6.325,0.59347 -12.5125,1.30028 -13.75,1.57068 -1.2375,0.2704 -2.25,1.12507 -2.25,1.89927 0,0.77419 0.7875,1.644 1.75,1.9329 0.9625,0.2889 -4.55,0.29474 -12.25,0.013 -7.7,-0.28176 -23.225,-1.17019 -34.5,-1.97428 -11.275,-0.8041 -25.9,-2.14402 -32.5,-2.97762 -6.6,-0.83359 -19.875,-3.10432 -29.5,-5.04606 -9.625,-1.94174 -25.3644,-5.34829 -34.9765,-7.57009 -9.612,-2.22181 -21.312,-5.39324 -26,-7.04763 -4.6879,-1.65438 -12.3485,-4.93048 -17.0235,-7.28022 -4.675,-2.34973 -9.3933,-5.26232 -10.485,-6.47242 -1.5006,-1.66319 -2.0752,-3.98436 -2.3542,-9.51051 -0.3523,-6.97574 -0.5471,-7.48407 -4.2563,-11.10602 l -3.8872,-3.79569 -3.0872,2.28253 c -1.6981,1.25539 -3.2896,2.08032 -3.5367,1.83316 -0.2472,-0.24715 0.013,-1.66607 0.5786,-3.15315 0.5654,-1.48708 1.028,-4.19439 1.028,-6.01624 0,-1.82186 -0.5625,-3.77809 -1.25,-4.3472 -0.6875,-0.56911 -4.175,-1.5295 -7.75,-2.1342 -3.575,-0.6047 -10.4539,-2.08276 -15.2864,-3.28458 -7.6347,-1.8987 -9.3387,-2.02366 -13,-0.95336 -2.3175,0.67747 -8.7136,2.17184 -14.2136,3.32082 -5.5,1.14898 -10.7875,2.77803 -11.75,3.6201 -1.2637,1.1056 -1.75,3.03946 -1.75,6.95939 0,2.98559 -0.3375,5.26391 -0.75,5.06293 -0.4125,-0.20099 -1.9742,-0.97965 -3.4704,-1.73036 -2.3079,-1.158 -2.9763,-1.15313 -4.4085,0.0321 -0.9284,0.76836 -2.5069,3.19702 -3.5076,5.39702 -1.1205,2.46312 -1.828,6.37964 -1.8416,10.19345 l -0.022,6.19345 -9.75,5.50318 c -5.3625,3.02675 -13.125,7.09034 -17.25,9.0302 -5.1826,2.43723 -10.5898,4.01363 -17.5,5.10188 -5.5,0.86618 -20.575,3.99142 -33.5,6.94499 -12.925,2.95356 -25.3,5.67103 -27.5,6.0388 -2.2,0.36778 -4.7875,0.88472 -5.75,1.14876 -0.9625,0.26403 -1.75,0.95283 -1.75,1.53066 0,0.57783 1.4344,2.68426 3.1875,4.68096 2.6957,3.07014 2.9186,3.68215 1.4447,3.96599 -0.9586,0.18461 -1.5852,0.86035 -1.3926,1.50166 0.1926,0.64131 2.355,2.16353 4.8053,3.3827 2.4503,1.21918 6.7051,2.33131 9.4551,2.4714 2.75,0.14009 7.5588,-0.0987 10.6861,-0.53065 l 5.686,-0.78536 5.814,5.82662 c 3.1977,3.20465 7.9514,8.67802 10.5639,12.16305 3.3266,4.43759 4.7489,7.28066 4.7463,9.48734 0,1.73301 -0.8954,4.61342 -1.9853,6.40092 -1.0899,1.7875 -2.1007,3.25 -2.2463,3.25 -0.1455,0 -0.3383,-1.6875 -0.4283,-3.75 -0.09,-2.0625 -0.3518,-6.1296 -0.5817,-9.03801 -0.2978,-3.7658 -0.9742,-5.67749 -2.3499,-6.64101 -1.0624,-0.74415 -4.3698,-2.07704 -7.3497,-2.96199 -2.9799,-0.88495 -7.5598,-1.609 -10.1775,-1.609 -2.6177,0 -5.0281,0.43457 -5.3563,0.9657 -0.3283,0.53114 0.384,2.89364 1.5827,5.25 1.1988,2.35637 7.1203,12.30624 13.1588,22.11084 6.0385,9.8046 11.5339,19.7046 12.2121,22 0.6781,2.2954 1.5279,6.19846 1.8884,8.67346 0.6338,4.35182 0.4969,4.20364 -4.1571,-4.5 -2.6468,-4.95 -6.4387,-11.53786 -8.4263,-14.6397 -1.9876,-3.10183 -4.0951,-5.93714 -4.6834,-6.30069 -0.6972,-0.43093 -0.8131,-0.0272 -0.3329,1.16006 0.405,1.00158 3.3362,6.62644 6.5136,12.49969 3.4965,6.46315 6.3897,13.36339 7.3291,17.47964 0.8536,3.74055 1.854,7.30038 2.2229,7.91073 0.369,0.61036 1.5007,2.28344 2.5149,3.71796 1.0142,1.43452 1.6354,3.18514 1.3805,3.89027 -0.294,0.81331 -2.065,-0.37218 -4.844,-3.24252 z m 87.5377,-184.58243 c 0.87,-0.33384 1.5818,-0.99729 1.5818,-1.47432 0,-0.47703 -1.3277,-1.55389 -2.9504,-2.39301 -1.6226,-0.83912 -4.0976,-1.52568 -5.5,-1.52568 -1.7885,0 -2.5496,0.53732 -2.5496,1.8 0,0.99 0.54,2.34 1.2,3 0.66,0.66 2.4232,1.2 3.9182,1.2 1.495,0 3.43,-0.27314 4.3,-0.60699 z m 50.5712,-0.88028 c 0.6789,-0.81799 0.9731,-2.16799 0.6538,-3 -0.3192,-0.832 -1.7196,-1.51273 -3.1118,-1.51273 h -2.5314 l 2,-2 c 1.1,-1.1 2,-3.32764 2,-4.95031 0,-1.73889 -0.6992,-3.34158 -1.7028,-3.90322 -1.4296,-0.80005 -1.4919,-1.207 -0.3883,-2.53671 0.767,-0.92413 1.0569,-2.60982 0.6961,-4.04722 -0.34,-1.35489 -3.1315,-4.51073 -6.2033,-7.01299 -3.0718,-2.50225 -5.3388,-4.54955 -5.0378,-4.54955 0.301,0 2.205,1.125 4.2312,2.5 2.0262,1.375 4.6337,2.49311 5.7944,2.48469 1.1608,-0.008 2.7855,-0.44418 3.6105,-0.96835 1.1883,-0.75503 1.4873,-3.19304 1.4388,-11.73469 -0.046,-8.16933 -0.4772,-11.57042 -1.7784,-14.03709 -0.9446,-1.7905 -3.4111,-4.32464 -5.4812,-5.63143 -2.0701,-1.3068 -5.2106,-4.02383 -6.979,-6.03785 -1.7683,-2.01402 -4.5126,-6.22988 -6.0983,-9.36857 -1.5858,-3.13869 -3.8548,-6.58421 -5.0423,-7.65671 -1.2371,-1.11727 -3.5926,-1.95 -5.5159,-1.95 -1.8463,0 -4.1498,0.6525 -5.119,1.45 -0.9692,0.7975 -4.604,5.83717 -8.0772,11.19926 -4.9206,7.59648 -7.4036,10.41906 -11.2448,12.78257 -3.26,2.00587 -5.2978,4.08897 -6.0162,6.14996 -0.5976,1.71416 -1.0865,7.74236 -1.0865,13.396 0,8.01153 0.3467,10.62604 1.5714,11.85078 0.8643,0.86429 1.8037,1.57143 2.0875,1.57143 0.2839,0 3.5142,-1.62518 7.1786,-3.61151 6.0189,-3.26264 6.3244,-3.33929 3.1625,-0.79355 -1.925,1.54988 -4.9625,4.3321 -6.75,6.18272 -1.7875,1.85061 -3.25,4.08477 -3.25,4.9648 0,0.88003 0.7447,2.42299 1.655,3.4288 1.5542,1.71742 1.5249,1.82874 -0.481,1.82874 -1.4775,0 -2.3413,0.81832 -2.8022,2.65478 -0.3665,1.46012 -0.2184,3.37262 0.3291,4.25 0.5475,0.87737 2.0762,2.15109 3.3972,2.83048 1.3211,0.67939 4.6784,1.24189 7.4608,1.25 2.797,0.008 5.9208,-0.61553 6.9867,-1.39494 1.9009,-1.39002 1.9001,-1.4412 -0.059,-3.66957 -1.9309,-2.19632 -1.9324,-2.23996 -0.054,-1.55151 1.0631,0.38961 6.1256,0.98378 11.25,1.32039 7.9355,0.52126 9.3171,0.86893 9.3171,2.34456 0,0.9529 1.0125,2.00389 2.25,2.33552 1.2375,0.33164 4.0072,0.60913 6.155,0.61664 3.7796,0.0132 3.8495,0.0749 2.1769,1.92309 -1.6395,1.81165 -1.6346,1.96373 0.095,2.96959 1.0027,0.58308 3.2305,1.07384 4.9506,1.09056 1.7202,0.0167 3.683,-0.63886 4.3619,-1.45686 z m 108.2089,-65.14533 c 1.4841,-0.75091 3.8024,-2.82827 5.1518,-4.61635 1.3494,-1.78808 2.9452,-5.05105 3.5461,-7.25105 0.601,-2.2 1.0951,-8.10355 1.0982,-13.11901 0,-5.01546 -0.6549,-12.89046 -1.4622,-17.5 -0.8073,-4.60954 -2.5615,-11.53099 -3.8984,-15.38099 -1.3368,-3.85 -3.6203,-9.64317 -5.0743,-12.87371 -1.454,-3.23053 -2.4658,-6.38053 -2.2484,-7 0.2174,-0.61946 2.0302,0.6424 4.0284,2.80412 1.9981,2.16173 3.8974,3.66605 4.2205,3.34293 0.3231,-0.32311 -0.078,-1.87491 -0.892,-3.44845 -0.8137,-1.57353 -4.1654,-5.19709 -7.4481,-8.05236 -4.3727,-3.80322 -8.3898,-9.01269 -15.0229,-19.48196 -4.9798,-7.85982 -11.3814,-16.88826 -14.2258,-20.06322 -5.063,-5.65152 -5.1375,-5.82467 -3.547,-8.25207 0.8935,-1.36368 6.0011,-5.02651 11.3502,-8.13962 l 9.7256,-5.66019 -0.3412,-13.62758 c -0.3057,-12.21413 0.039,-15.73364 3.3205,-33.93302 2.0138,-11.16799 3.419,-20.93756 3.1225,-21.71015 -0.2965,-0.7726 -1.6095,-1.40472 -2.9179,-1.40472 -1.3744,0 -6.138,2.80843 -11.2814,6.65102 -4.8964,3.65806 -13.6584,11.42056 -19.4711,17.25 -6.6964,6.71567 -12.148,13.2649 -14.8796,17.87524 -3.4007,5.73997 -4.6946,7.15451 -6.1279,6.6996 -1.4435,-0.45815 -3.4681,1.84861 -9.851,11.22374 -4.4187,6.49022 -9.2191,13.25465 -10.6675,15.03207 -1.6113,1.97732 -2.3892,3.86832 -2.004,4.87192 0.4547,1.18505 1.3992,1.4863 3.4031,1.0855 2.5822,-0.51644 2.898,-0.20485 4.5734,4.51235 0.9899,2.7869 2.9092,6.1766 4.2653,7.53267 1.9516,1.95165 3.2623,2.38961 6.2877,2.10108 3.6189,-0.34511 3.9445,-0.13392 6.1218,3.97019 1.2647,2.38408 4.244,6.04628 6.6206,8.13822 2.3765,2.09195 9.3848,6.1484 15.5738,9.01435 6.1891,2.86595 10.1279,4.94443 8.7529,4.61886 -1.375,-0.32558 -4.9879,-0.86724 -8.0286,-1.20369 -4.3238,-0.47844 -5.8098,-0.27282 -6.8193,0.94365 -1.0309,1.24209 -1.0432,2.02147 -0.061,3.86931 0.6764,1.27265 3.4534,4.8765 6.1711,8.00853 2.7178,3.13204 4.7336,6.28204 4.4796,7 -0.254,0.71797 0.5285,3.33039 1.7388,5.80539 1.2104,2.475 2.9455,7.22281 3.8558,10.5507 0.9104,3.32788 3.2172,14.62441 5.1263,25.10339 1.9091,10.47898 4.6675,22.28046 6.1297,26.2255 1.5662,4.22536 3.6983,7.99051 5.1886,9.16276 1.942,1.52759 3.365,1.83898 6.1244,1.34016 1.977,-0.35739 4.8089,-1.26419 6.2929,-2.01511 z m -51.9144,-23.37605 c 0.46,-2.47024 0.6268,-11.01635 0.3706,-18.99135 -0.3107,-9.67273 -1.034,-16.33103 -2.1726,-20 -0.9387,-3.025 -2.9575,-7.975 -4.4861,-11 -1.5286,-3.025 -5.3641,-9.1 -8.5232,-13.5 -3.1592,-4.4 -9.5719,-12.6125 -14.2506,-18.25 -4.6786,-5.6375 -9.1017,-10.25 -9.8291,-10.25 -0.7274,0 -1.7884,0.87042 -2.3577,1.93426 -0.6152,1.14944 -1.0352,10.09595 -1.0352,22.04966 0,16.03574 0.308,20.71111 1.5189,23.05263 1.3598,2.62958 1.3584,3.32139 -0.014,6.60507 -1.3358,3.19688 -1.3486,3.93688 -0.1,5.76311 0.7879,1.1524 9.2841,10.12731 18.8804,19.94424 12.3966,12.68149 17.9856,17.74544 19.3049,17.49135 1.3148,-0.25321 2.1012,-1.66893 2.6934,-4.84897 z m -150.2839,-12.90454 16.9826,-16.91319 0.9868,-6.95806 c 0.5428,-3.82693 1.4115,-14.7785 1.9304,-24.33681 0.519,-9.55831 0.6413,-20.29868 0.2719,-23.86749 -0.5068,-4.89537 -1.0776,-6.56631 -2.3247,-6.80464 -0.9091,-0.17374 -3.3577,1.17119 -5.4414,2.98874 -2.0836,1.81755 -8.6597,9.82964 -14.6136,17.80464 -5.9538,7.975 -12.156,17.2 -13.7826,20.5 -1.6266,3.3 -3.4051,8.925 -3.9523,12.5 -0.5471,3.575 -1.3021,13.79656 -1.6778,22.71458 -0.526,12.48738 -0.3901,16.56752 0.5913,17.75 0.7008,0.84448 1.8981,1.53542 2.6605,1.53542 0.7624,0 9.0284,-7.61094 18.3689,-16.91319 z m 42.5213,11.16319 c 2.868,-2.6125 6.3978,-5.55765 7.8441,-6.54478 l 2.6295,-1.79478 -1.9385,-3.7999 c -1.0662,-2.08995 -3.5901,-5.24994 -5.6086,-7.02221 -2.0185,-1.77227 -4.7743,-3.64216 -6.124,-4.15532 -1.3497,-0.51315 -2.9872,-0.92612 -3.6389,-0.9177 -0.6517,0.008 -1.7978,0.40363 -2.5469,0.87825 -0.7491,0.47461 -1.7414,2.83022 -2.2051,5.23468 -0.5064,2.62582 -0.4265,6.7651 0.2001,10.36457 0.5737,3.29605 1.6555,7.45855 2.404,9.25 0.7485,1.79146 1.9029,3.25719 2.5653,3.25719 0.6625,0 3.551,-2.1375 6.419,-4.75 z m 52.6065,2 c 0.5931,-1.5125 1.5608,-5.48955 2.1506,-8.8379 0.8221,-4.66747 0.769,-7.17123 -0.2277,-10.731 -0.715,-2.5537 -1.9534,-5.18539 -2.7521,-5.8482 -1.1514,-0.95565 -2.1622,-0.82261 -4.8832,0.64272 -1.8872,1.0163 -5.6776,4.22311 -8.4233,7.12624 -2.7457,2.90313 -4.9921,5.93345 -4.9921,6.73403 0,0.80059 2.1481,2.83406 4.7736,4.51882 2.6254,1.68476 6.0846,4.43167 7.6871,6.10425 1.6024,1.67257 3.5154,3.04104 4.2511,3.04104 0.7357,0 1.8229,-1.2375 2.416,-2.75 z m 373.87217,-13.15637 c 0,-0.4985 -2.249,-4.23535 -4.9977,-8.3041 -3.5183,-5.20776 -5.3003,-9.03427 -6.0197,-12.92594 -0.662,-3.58088 -0.6944,-7.84089 -0.092,-12.09366 0.5114,-3.61101 1.4203,-7.48189 2.0197,-8.60196 0.5994,-1.12007 1.0899,-2.6125 1.0899,-3.31651 0,-0.95104 -0.3547,-0.90368 -1.3802,0.18425 -0.759,0.80536 -2.5979,4.56314 -4.0863,8.35062 -1.4884,3.78748 -2.9511,9.25997 -3.2505,12.16108 -0.2995,2.90111 -0.2328,6.5164 0.1481,8.03398 0.3809,1.51758 3.8907,6.05759 7.7997,10.08892 3.909,4.03133 7.4811,7.32969 7.9382,7.32969 0.457,0 0.831,-0.40787 0.831,-0.90637 z M 642.80673,672.61383 c 6.6808,-3.69224 12.9217,-7.56925 13.8686,-8.61558 1.1191,-1.23661 1.5101,-2.74515 1.1173,-4.3104 -0.3324,-1.3244 -6.7623,-9.00454 -14.2885,-17.06698 -7.5263,-8.06244 -13.9496,-14.53447 -14.274,-14.3823 -0.3244,0.15217 -6.7182,6.61231 -14.2084,14.35586 -7.4902,7.74356 -13.9389,15.08831 -14.3303,16.32167 -0.4863,1.5322 -0.1404,2.87385 1.0922,4.23583 0.9922,1.09635 6.5966,4.88099 12.4543,8.41031 5.8577,3.52933 11.724,6.82224 13.0362,7.31757 1.3122,0.49534 2.6108,0.79859 2.8858,0.6739 0.275,-0.12469 5.9661,-3.24764 12.6468,-6.93988 z m 220.7879,-8.84858 c 0.8198,-2.8875 2.4073,-8.61596 3.5279,-12.7299 1.2248,-4.49676 2.0374,-10.54709 2.0374,-15.17055 v -7.69064 l -3.0193,-0.66315 c -2.2629,-0.49702 -4.0793,-0.0339 -7.25,1.84836 -2.3269,1.38134 -5.7897,3.83133 -7.6952,5.44442 -3.1976,2.70699 -3.3516,3.08859 -2,4.95417 0.8055,1.1117 3.0114,4.19062 4.902,6.84204 1.8907,2.65142 4.0034,6.41703 4.695,8.36801 0.7605,2.14554 1.0272,5.6218 0.6748,8.79724 -0.4884,4.40038 -0.3222,5.25 1.0271,5.25 1.0859,0 2.0947,-1.70823 3.1003,-5.25 z m -13.8213,-1 c -0.3501,-1.7875 -1.4648,-4.375 -2.4771,-5.75 -1.0123,-1.375 -3.0234,-2.92128 -4.469,-3.43618 -1.4455,-0.5149 -2.9495,-0.61496 -3.3421,-0.22236 -0.3926,0.3926 0.8863,2.0328 2.842,3.64488 1.9558,1.61208 4.1228,4.29965 4.8157,5.97236 0.6928,1.67272 1.7114,3.0413 2.2634,3.0413 0.5963,0 0.7453,-1.31925 0.3671,-3.25 z m 25.3251,-3.62951 c 1.0505,-2.05909 3.1299,-7.54106 4.621,-12.18215 1.491,-4.64109 3.9622,-10.91334 5.4915,-13.93834 1.5292,-3.025 5.1809,-8.17697 8.1147,-11.44882 3.1078,-3.46578 4.4995,-5.60579 3.3343,-5.12699 -1.1,0.45201 -3.35,1.26796 -5,1.81323 -1.65,0.54527 -4.0813,1.50242 -5.4029,2.12699 -1.3215,0.62457 -3.2117,2.26059 -4.2003,3.63559 -0.9885,1.375 -3.6313,9.25 -5.8727,17.5 -2.2414,8.25 -4.3573,16.75641 -4.702,18.90314 -0.4565,2.84284 -0.3098,3.70728 0.5399,3.18215 0.6416,-0.39654 2.026,-2.4057 3.0765,-4.4648 z m -81.2182,-0.45631 c -0.2977,-1.8347 -0.2344,-3.83239 0.1407,-4.4393 0.3751,-0.60692 3.7547,-2.48212 7.5102,-4.16711 3.7556,-1.68499 8.1796,-4.02589 9.8313,-5.202 1.6517,-1.1761 4.5383,-4.53829 6.4147,-7.47151 1.8763,-2.93323 4.4176,-6.28849 5.6472,-7.45614 1.2296,-1.16765 4.6199,-3.18903 7.534,-4.49195 2.9141,-1.30292 6.6434,-3.32665 8.2873,-4.49718 1.6438,-1.17054 5.9824,-6.38068 9.6413,-11.57811 6.2022,-8.81015 7.1305,-9.67957 13.7128,-12.84295 5.1327,-2.46676 7.7427,-4.43389 9.5602,-7.20551 2.48,-3.78201 2.4996,-3.98792 2.4477,-25.81242 -0.049,-20.74362 -0.2337,-22.87028 -3.2293,-37.23925 -2.2039,-10.57114 -2.9068,-15.93176 -2.2946,-17.5 0.4853,-1.24341 2.447,-3.75919 4.3593,-5.59061 l 3.4769,-3.32986 4.6612,5.72214 c 2.5637,3.14718 5.8104,7.68311 7.215,10.07986 1.4046,2.39675 2.7861,4.35772 3.0701,4.35772 0.2839,0 0.21,-1.63279 -0.1644,-3.62843 -0.3744,-1.99563 -1.7738,-6.09994 -3.1097,-9.12069 -1.3359,-3.02075 -4.5385,-8.47545 -7.117,-12.12157 -2.5784,-3.64612 -8.0916,-10.16092 -12.2516,-14.47734 -4.16,-4.31641 -9.6597,-8.91551 -12.2216,-10.22022 -2.5619,-1.3047 -7.5119,-3.1502 -11,-4.10109 -5.167,-1.40857 -7.5463,-2.827 -12.842,-7.65557 -3.575,-3.25967 -9.65,-8.16036 -13.5,-10.89043 -3.85,-2.73006 -9.1168,-6.04555 -11.704,-7.36775 l -4.7041,-2.40401 -2.4641,3.24355 c -1.3553,1.78395 -3.8009,6.61855 -5.4346,10.74355 -1.6338,4.125 -5.2809,15.28214 -8.1047,24.79364 -2.8239,9.5115 -6.699,21.07353 -8.6114,25.69339 -2.9645,7.16129 -3.4749,9.55077 -3.4618,16.20636 0.01,4.29364 0.3776,8.37733 0.8203,9.07488 0.4428,0.69755 2.3454,1.71005 4.2281,2.25 1.8827,0.53995 6.3511,0.97678 9.9297,0.97072 3.5786,-0.006 8.1941,-0.28993 10.2566,-0.63084 2.0625,-0.34091 3.75,-1.05232 3.75,-1.58092 0,-0.52859 -2.1375,-0.86164 -4.75,-0.74011 -2.6125,0.12154 -6.3025,0.1629 -8.2,0.0919 -1.9794,-0.074 -3.0451,-0.4911 -2.5,-0.97839 0.5225,-0.46713 9.3837,-4.5724 19.6916,-9.1228 l 18.7416,-8.27348 7.5493,1.12281 c 4.152,0.61755 9.2183,1.12823 11.2583,1.13486 l 3.7092,0.012 -4.5,2.55662 c -2.475,1.40614 -5.9334,3.93576 -7.6853,5.62139 -1.7519,1.68562 -4.2225,3.11722 -5.4902,3.18133 -1.67,0.0845 -3.203,1.61956 -5.5647,5.57233 -1.7929,3.00067 -3.2598,6.26317 -3.2598,7.25 0,1.12757 0.7431,1.79424 2,1.79424 1.5199,0 2,0.66667 2,2.77749 0,1.52763 0.7047,3.78365 1.5661,5.01339 0.8613,1.22974 3.3184,3.12987 5.4601,4.22251 2.1418,1.09263 5.352,1.98661 7.1339,1.98661 2.3632,0 2.9412,0.29871 2.136,1.10386 -0.6071,0.60712 -3.7346,1.12784 -6.95,1.15717 -3.5565,0.0324 -7.0844,-0.58787 -9.0078,-1.58388 -1.739,-0.90045 -4.0703,-2.79231 -5.1809,-4.20413 -1.1105,-1.41182 -2.2938,-3.81763 -2.6296,-5.34626 -0.3357,-1.52862 -0.1292,-4.0449 0.4589,-5.59172 0.5881,-1.54683 0.9001,-2.98152 0.6935,-3.1882 -0.2067,-0.20668 -3.3181,0.53298 -6.9142,1.6437 -4.2034,1.2983 -8.6323,3.67067 -12.4021,6.64322 -3.2252,2.54306 -10.4315,6.78606 -16.0141,9.4289 -5.5825,2.64284 -10.4651,5.31484 -10.8501,5.93778 -0.385,0.62294 -0.4786,1.35404 -0.2079,1.62467 0.2706,0.27063 2.1165,-0.18671 4.102,-1.01631 l 3.61,-1.50835 -2.5019,3.68191 c -1.376,2.02512 -2.5019,4.85939 -2.5019,6.29846 v 2.61648 l 5.75,-0.86667 c 3.1625,-0.47667 9.2989,-1.99439 13.6364,-3.3727 4.3444,-1.3805 8.7846,-2.22095 9.8863,-1.8713 1.1,0.34911 3.9546,2.12676 6.3436,3.95035 2.389,1.82359 5.2303,3.59703 6.314,3.94098 1.0837,0.34395 2.8927,2.11775 4.02,3.94177 1.2265,1.98454 2.0086,4.8754 1.9473,7.19837 l -0.1023,3.88197 -0.8125,-3.45114 c -0.4469,-1.89813 -1.5928,-4.02171 -2.5465,-4.71907 -0.9537,-0.69735 -3.9417,-2.00121 -6.64,-2.89745 -4.0657,-1.35041 -5.4182,-1.41739 -7.896,-0.39105 -1.6445,0.68117 -4.8823,3.35648 -7.1951,5.94514 -3.6654,4.10246 -5.5531,5.19273 -14.7052,8.49319 -5.775,2.0826 -12.6057,4.8431 -15.1792,6.13445 -2.5736,1.29134 -4.9627,2.80646 -5.3091,3.36691 -0.3723,0.60239 0.5539,1.01902 2.2653,1.01902 2.6907,0 3.0144,0.42931 4.5857,6.08069 0.9298,3.34439 2.9651,8.85689 4.5229,12.25 1.5578,3.39312 5.6162,9.99431 9.0186,14.66931 l 6.1863,8.5 -0.6132,6.14093 c -0.346,3.46587 -0.1312,7.93089 0.4933,10.25 0.6086,2.25999 1.598,4.10907 2.1988,4.10907 0.6796,0 0.8878,-1.2603 0.5509,-3.33582 z m -5.8466,-5.07698 c 0.6111,-2.42704 0.8246,-5.91454 0.4744,-7.75 -0.3503,-1.83546 -1.5284,-5.1372 -2.618,-7.3372 -1.0897,-2.2 -3.5536,-6.15865 -5.4754,-8.797 -1.9217,-2.63835 -3.7375,-4.5536 -4.0349,-4.2561 -0.2975,0.29749 1.0889,4.03113 3.0809,8.29699 2.5958,5.5588 3.7977,9.73921 4.2425,14.75611 0.3413,3.85 0.7946,7.5625 1.0073,8.25 0.2127,0.6875 0.7974,1.25 1.2994,1.25 0.502,0 1.4127,-1.98576 2.0238,-4.4128 z m -180.4355,-9.00587 c 3.4057,-2.43027 8.9982,-6.76332 12.4278,-9.629 4.1625,-3.47809 6.4265,-6.16482 6.8098,-8.08132 0.3505,-1.75248 1.2073,-2.86835 2.1992,-2.86418 0.8937,0.004 2.7172,1.61041 4.0521,3.57033 1.3349,1.95991 5.6099,6.51852 9.5,10.13023 3.8901,3.61172 8.7344,7.67268 10.7652,9.02437 2.0307,1.35169 4.1682,2.16345 4.75,1.80391 0.5817,-0.35954 1.0577,-3.04773 1.0577,-5.97376 0,-2.92603 0.8953,-10.43697 1.9896,-16.69098 1.0943,-6.25401 1.9943,-13.69173 2,-16.52826 0.01,-4.9342 -0.208,-5.35371 -5.038,-9.69625 -2.7766,-2.4964 -7.6141,-5.55477 -10.75,-6.79636 -4.8139,-1.90598 -7.6478,-2.26466 -18.2016,-2.30375 -9.5811,-0.0355 -13.7128,0.37672 -17.6934,1.76526 -2.8564,0.99637 -6.3565,2.72641 -7.7779,3.84453 -1.4215,1.11812 -3.472,3.77249 -4.5566,5.89859 -1.4724,2.88615 -1.9659,5.83943 -1.9477,11.65547 0.013,4.28441 0.5099,9.81484 1.1033,12.28984 0.5933,2.475 1.0776,8.325 1.0761,13 -10e-4,4.675 0.2036,8.8375 0.4557,9.25 0.2522,0.4125 0.7123,0.75 1.0225,0.75 0.3102,0 3.3505,-1.9884 6.7562,-4.41867 z m 23.5618,-56.93476 c 10.175,0.0976 19.7375,0.49455 21.25,0.88204 1.7787,0.45571 2.75,0.31018 2.75,-0.41203 0,-0.61412 -1.6875,-2.97774 -3.75,-5.25248 -2.0625,-2.27475 -7.4956,-7.89975 -12.0736,-12.5 -5.2151,-5.24044 -9.1158,-8.3641 -10.4447,-8.3641 -1.3652,0 -5.3022,3.29637 -11.0478,9.25 -4.9097,5.0875 -10.047,10.70791 -11.4162,12.48979 -1.3693,1.78189 -2.2338,3.9062 -1.9213,4.72069 0.4816,1.25494 1.147,1.29228 4.361,0.24473 2.5489,-0.83077 9.8593,-1.17794 22.2926,-1.05864 z m 119.5824,-5.15957 c 2.0487,-1.93215 3.4287,-3.80919 3.0667,-4.1712 -0.362,-0.36201 -2.3149,0.68272 -4.3399,2.32162 -2.0249,1.6389 -3.8603,3.51594 -4.0788,4.1712 -0.2184,0.65526 0.058,1.19138 0.615,1.19138 0.5567,0 2.6884,-1.58085 4.737,-3.513 z m 172.9774,-12.48624 c 6.4722,-4.93405 14.602,-9.96485 21.2165,-13.12892 5.898,-2.82133 12.7487,-6.51678 15.2237,-8.21211 2.475,-1.69533 10.1675,-7.65591 17.0944,-13.24573 6.9269,-5.58982 15.4769,-11.52295 19,-13.18475 3.5231,-1.66179 7.87197,-3.32981 9.66427,-3.70672 1.7923,-0.3769 3.0141,-1.08106 2.7152,-1.5648 -0.299,-0.48373 -3.7904,-0.86249 -7.7587,-0.84167 -5.19557,0.0273 -9.17457,-0.65405 -14.21517,-2.43397 -3.85,-1.3595 -7.7875,-2.79228 -8.75,-3.18394 -0.9625,-0.39167 -1.75,-1.10896 -1.75,-1.59398 0,-0.48502 3.4875,-2.64979 7.75,-4.8106 4.2625,-2.16082 8.65,-4.62653 9.75,-5.47936 1.1,-0.85283 1.5839,-1.56491 1.0753,-1.58241 -0.5086,-0.0175 -7.7859,2.2182 -16.1717,4.9682 -10.4832,3.43779 -16.893,5 -20.5151,5 -2.8975,0 -7.8456,-0.53236 -10.9958,-1.18302 -4.5238,-0.93439 -6.6254,-0.91404 -9.9994,0.0968 -2.3495,0.70393 -5.4992,2.59377 -6.9993,4.19965 -2.0706,2.2166 -3.379,5.62521 -5.4325,14.15316 -1.4878,6.17835 -2.9339,15.10429 -3.2135,19.83542 -0.4835,8.17871 -0.3928,8.68316 1.8442,10.25 1.294,0.90637 3.1783,1.64795 4.1873,1.64795 1.27,0 -0.082,1.76919 -4.3925,5.75 -3.4249,3.1625 -7.4864,7.72833 -9.0256,10.14628 -1.5393,2.41796 -2.5612,4.78046 -2.271,5.25 0.2902,0.46955 0.7411,0.85372 1.0021,0.85372 0.2609,0 5.1962,-3.59966 10.9673,-7.99924 z m -314.5779,-4.67906 c 2.9561,-1.47306 7.0944,-4.39806 9.1964,-6.5 2.6379,-2.63787 3.8217,-4.70299 3.8217,-6.66671 0,-1.632 -0.9033,-3.65724 -2.1186,-4.75 -1.1653,-1.04775 -4.0495,-4.60499 -6.4093,-7.90499 -2.3599,-3.3 -6.0602,-9.6 -8.2228,-14 -2.1626,-4.4 -5.4262,-12.275 -7.2523,-17.5 -1.8261,-5.225 -3.7525,-10.0625 -4.281,-10.75 -0.5285,-0.6875 -2.4953,-1.25 -4.3706,-1.25 -1.8753,0 -4.9542,0.64535 -6.8419,1.4341 -2.2846,0.95454 -3.656,2.32516 -4.1011,4.09876 -0.4764,1.898 0.937,7.45539 4.9125,19.31589 3.0697,9.15819 7.0357,22.49036 8.8135,29.62705 2.2912,9.19795 3.8944,13.63793 5.5065,15.25 1.2508,1.25081 3.1063,2.2742 4.1233,2.2742 1.017,0 4.2677,-1.20523 7.2237,-2.6783 z m 53.148,-1.3217 c 1.0057,-1.375 3.1488,-8.39483 4.7625,-15.59961 1.6136,-7.20479 4.0633,-16.20479 5.4437,-20 1.3805,-3.79522 3.1942,-8.92539 4.0306,-11.40039 0.8364,-2.475 2.0034,-6.975 2.5933,-10 0.5899,-3.025 1.1778,-6.12397 1.3063,-6.88661 0.132,-0.78338 -1.289,-1.94664 -3.2663,-2.67392 -1.925,-0.70802 -5.075,-1.31466 -7,-1.34808 -1.925,-0.0334 -4.061,0.29544 -4.7466,0.73081 -0.6856,0.43536 -1.966,3.24097 -2.8454,6.23469 -0.8793,2.99371 -3.4226,9.94311 -5.6516,15.44311 -2.229,5.5 -5.5368,12.25 -7.3506,15 -1.8137,2.75 -5.572,7.68052 -8.3518,10.95672 -2.7797,3.27619 -5.054,6.84083 -5.054,7.92142 0,1.08058 2.0829,3.9605 4.6287,6.39981 2.5458,2.43931 6.4833,5.28841 8.75,6.33134 2.2667,1.04292 5.6516,1.78248 7.5219,1.64347 2.2833,-0.16971 4.0015,-1.07418 5.2293,-2.75276 z m 105.6377,-12.07701 c 0.2526,-3.23059 0.1823,-3.31388 -1.25,-1.48186 -0.8347,1.06762 -1.5176,2.79262 -1.5176,3.83333 0,1.06595 0.5458,1.71302 1.25,1.48186 0.6875,-0.22569 1.3704,-1.95069 1.5176,-3.83333 z m 125.2324,-15.98201 c 0,-6.45136 -0.3587,-9.83736 -1,-9.44098 -0.5524,0.34141 -1,4.84372 -1,10.05902 0,5.62732 0.4039,9.44098 1,9.44098 0.6004,0 1,-4.01967 1,-10.05902 z m 48,-62.80612 c 0,-0.47583 -0.8915,-1.99843 -1.981,-3.38355 -1.0895,-1.38513 -4.2423,-3.96947 -7.0061,-5.74299 -2.7637,-1.77352 -8.4144,-4.30093 -12.5571,-5.61645 -5.1638,-1.63981 -9.7996,-2.37769 -14.7439,-2.34677 -3.9666,0.0248 -8.5619,0.6459 -10.2119,1.3802 -2.1733,0.96718 -2.5867,1.49441 -1.5,1.91321 0.825,0.31796 6,1.30931 11.5,2.20299 5.5,0.89369 13.9307,2.9266 18.7349,4.51757 4.8042,1.59097 10.4292,4.00206 12.5,5.35797 2.0708,1.35591 4.1026,2.49177 4.5151,2.52413 0.4125,0.0324 0.75,-0.33048 0.75,-0.80631 z m -644.8186,359.33445 c -3.4753,-0.75443 -11.3503,-3.59877 -17.5,-6.32075 -6.1498,-2.72199 -16.1314,-7.19026 -22.1814,-9.92949 -6.05,-2.73923 -14.15,-6.00199 -18,-7.25059 -3.85,-1.24859 -7.7491,-2.98979 -8.6646,-3.86933 -0.9155,-0.87953 -4.1234,-5.87415 -7.1288,-11.09915 -3.0053,-5.225 -11.516,-19.11147 -18.9127,-30.85882 -9.2615,-14.70894 -15.8705,-23.98383 -21.2274,-29.7901 -5.283,-5.72612 -7.6104,-8.97989 -7.2539,-10.14118 0.2888,-0.94044 2.4172,-5.9849 4.7299,-11.2099 l 4.2048,-9.5 -0.5739,-13.5 c -0.4048,-9.52424 -1.1434,-15.14038 -2.5078,-19.07002 -1.0637,-3.0635 -3.7922,-9.29381 -6.0633,-13.84511 -2.2711,-4.55131 -6.3918,-11.51563 -9.1571,-15.47626 l -5.0279,-7.20116 3.9987,-6.95372 c 2.497,-4.34245 5.4733,-12.02519 7.9255,-20.4588 2.1598,-7.42779 4.6311,-15.19029 5.4917,-17.25 0.8606,-2.05971 2.1867,-3.74493 2.9468,-3.74493 0.7601,0 2.0076,1.16889 2.7722,2.59754 0.9554,1.78523 4.6285,4.15955 11.7456,7.59241 l 10.3554,4.99487 8.3988,-1.66661 c 4.6194,-0.91663 8.8671,-1.37724 9.4393,-1.02358 0.6757,0.41764 0.4215,1.70461 -0.7254,3.67166 -0.9713,1.66574 -3.5659,4.42157 -5.7659,6.12406 -2.2,1.70249 -4.1875,3.23363 -4.4167,3.40254 -0.2291,0.16891 -0.1614,0.56236 0.1506,0.87434 0.312,0.31198 2.7495,-0.54606 5.4167,-1.90675 2.6671,-1.36069 6.01,-3.75345 7.4286,-5.31723 1.4186,-1.56379 6.4457,-8.01825 11.1712,-14.34325 4.7256,-6.325 12.0048,-15.55 16.1759,-20.5 6.2525,-7.41994 7.4811,-9.43891 6.998,-11.5 -0.3222,-1.375 -2.1543,-5.08281 -4.0712,-8.23957 -1.9169,-3.15677 -4.4557,-6.41927 -5.6417,-7.25 -1.186,-0.83074 -3.1813,-1.51043 -4.4339,-1.51043 -1.2526,0 -2.2775,0.45 -2.2775,1 0,0.55 0.635,1 1.4111,1 0.7761,0 2.6204,1.43713 4.0984,3.19363 1.478,1.7565 3.0329,4.119 3.4553,5.25 0.4225,1.131 1.0762,3.04587 1.4528,4.25525 0.6564,2.10803 0.569,2.14153 -2.1165,0.81089 -1.5406,-0.76339 -6.1761,-2.1209 -10.3011,-3.01668 -4.125,-0.89578 -9.3,-2.30684 -11.5,-3.13568 -2.2,-0.82885 -5.445,-2.89465 -7.2111,-4.59066 -1.7661,-1.69601 -2.977,-3.46235 -2.691,-3.9252 0.2861,-0.46285 1.3609,-0.84155 2.3885,-0.84155 1.0276,0 2.8011,-1.18569 3.941,-2.63486 1.1399,-1.44917 2.0726,-4.07872 2.0726,-5.84345 0,-1.76472 -0.8471,-5.67056 -1.8823,-8.67964 -1.0353,-3.00908 -6.3386,-14.09982 -11.7852,-24.64608 -6.2741,-12.14859 -11.8265,-21.4691 -15.1526,-25.4355 -2.8874,-3.44326 -6.3881,-8.5745 -7.7795,-11.40276 -1.3913,-2.82825 -3.1599,-8.67825 -3.9302,-13 -0.7702,-4.32174 -1.4043,-12.35771 -1.4091,-17.85771 -0.01,-7.74905 0.4174,-10.90038 1.8842,-14 l 1.8928,-4 0.081,6.56634 c 0.044,3.61149 0.5686,9.23649 1.1647,12.5 0.5961,3.26351 2.4554,8.85866 4.1317,12.43366 2.5343,5.4049 5.5284,8.94292 17.7713,21 8.0979,7.975 17.5367,18.20191 20.9751,22.72647 3.4384,4.52455 8.2633,9.55891 10.7219,11.18746 2.4587,1.62855 5.7805,3.24876 7.3818,3.60047 1.6013,0.35171 3.1794,1.07289 3.5068,1.60262 0.3628,0.58706 -0.5113,0.69998 -2.2386,0.2892 -1.5586,-0.37067 -6.2656,-1.7407 -10.4601,-3.04452 -5.0741,-1.57725 -9.9074,-4.03362 -14.4428,-7.34003 -3.749,-2.7332 -7.0379,-4.74794 -7.3087,-4.47721 -0.2707,0.27074 1.2785,2.30781 3.4428,4.52681 2.1643,2.21901 5.96,5.32737 8.435,6.90745 2.475,1.58009 8.1,4.30929 12.5,6.06489 4.4,1.7556 15.2,5.57777 24,8.49371 15.6189,5.17543 16.0478,5.39295 18.0054,9.1322 1.1043,2.10929 4.0989,5.23123 6.6645,6.94784 2.5624,1.71455 8.41,4.13383 12.9946,5.37617 4.5845,1.24235 12.0789,3.02089 16.6542,3.95232 6.9248,1.40976 8.7147,2.18449 10.6827,4.62383 1.9591,2.42833 2.6754,2.74113 4.1814,1.82593 1.4168,-0.86103 1.8835,-2.618 2.118,-7.97298 0.1679,-3.8345 -0.4134,-10.07866 -1.316,-14.13557 -0.8892,-3.99685 -2.7436,-10.04019 -4.1208,-13.42967 -1.6328,-4.01817 -2.284,-7.06651 -1.8715,-8.76003 0.3479,-1.42855 3.239,-5.29736 6.4247,-8.59736 5.0502,-5.23156 6.2066,-7.21206 9.0295,-15.46382 1.7806,-5.2051 4.5244,-11.9551 6.0973,-15 l 2.8598,-5.53618 0.054,9 c 0.03,4.95 0.7247,13.44957 1.5444,18.88792 0.8197,5.43836 3.3342,18.48836 5.5877,29 3.5099,16.37163 4.0114,20.18321 3.4979,26.58222 -0.5478,6.82563 -0.4624,7.33306 0.9893,5.88137 0.9247,-0.92471 1.8092,-4.04701 2.1161,-7.47014 0.29,-3.23475 0.012,-10.15637 -0.6174,-15.38137 -0.6296,-5.225 -2.3181,-15.575 -3.7522,-23 l -2.6075,-13.5 1.0643,-30.81109 1.0643,-30.81109 4.0023,-6.68891 c 2.2013,-3.6789 4.6954,-7.58891 5.5426,-8.68891 1.2048,-1.5643 1.1374,-0.91076 -0.3092,3 -1.0172,2.75 -2.1626,6.89218 -2.5452,9.20485 -0.3905,2.36033 -0.1702,6.74699 0.5024,10 0.6589,3.18733 2.451,8.27015 3.9824,11.29515 1.5314,3.025 4.5193,7.3 6.6398,9.5 2.1204,2.2 8.0872,7.81161 13.2595,12.47024 5.1723,4.65863 10.6814,10.48423 12.2424,12.94578 1.5611,2.46155 2.8383,4.85865 2.8383,5.32688 0,0.46824 -1.6875,-0.49903 -3.75,-2.1495 -2.0625,-1.65046 -6.225,-4.07981 -9.25,-5.39855 -3.025,-1.31874 -6.8377,-2.72331 -8.4728,-3.12126 -2.8724,-0.6991 -2.9146,-0.65921 -1.25,1.18017 0.9476,1.04705 1.7138,3.21829 1.7028,4.82498 -0.011,1.60669 -1.064,6.98646 -2.34,11.95504 l -2.3199,9.03377 1.839,17.96623 c 1.0114,9.88142 2.5476,21.56622 3.4137,25.96622 0.9672,4.91326 2.3544,8.83532 3.5954,10.16492 1.3433,1.43924 1.8015,2.85514 1.3671,4.22402 -0.3595,1.1325 -1.9562,2.98665 -3.5483,4.12032 l -2.8947,2.06122 -1.5357,-2.34381 c -0.8447,-1.2891 -1.9904,-4.74138 -2.5461,-7.67173 -0.5558,-2.93036 -1.0105,-6.86806 -1.0105,-8.75045 0,-2.02704 -0.4078,-3.17053 -1,-2.80449 -0.55,0.33992 -1,4.6594 -1,9.59886 0,6.84136 0.4514,9.86566 1.8949,12.69516 1.0422,2.04288 4.5297,5.68589 7.75,8.09557 3.2203,2.40967 8.6683,5.71303 12.1066,7.34078 3.6501,1.72801 8.6436,3.17552 12,3.47853 4.0082,0.36185 9.8355,-0.29413 19.2485,-2.1668 7.425,-1.47717 15.8246,-3.59032 18.6657,-4.69587 2.8412,-1.10556 7.0481,-3.62132 9.3487,-5.59058 2.3006,-1.96925 6.4675,-6.31988 9.2597,-9.66806 2.7921,-3.34817 4.7922,-5.18759 4.4445,-4.08759 -0.3476,1.1 -1.9945,6.66567 -3.6596,12.36816 -1.6651,5.70249 -3.3231,13.25264 -3.6842,16.77811 -0.3612,3.52547 -1.0242,6.63701 -1.4732,6.91454 -0.449,0.27752 -1.5831,-0.97263 -2.5202,-2.77811 -0.9371,-1.80549 -1.8819,-2.75582 -2.0996,-2.11184 -0.2176,0.64397 0.8163,3.56267 2.2977,6.486 1.4813,2.92333 3.7603,7.00531 5.0644,9.07107 2.274,3.60228 2.4134,4.91179 3.4088,32.01399 0.5708,15.54195 1.6379,32.37353 2.3714,37.40353 0.7405,5.07865 2.4731,11.63452 3.8961,14.74289 l 2.5626,5.59744 -2.5382,3.01656 c -1.3961,1.6591 -7.3299,6.7248 -13.1864,11.25711 -5.8565,4.5323 -11.4379,9.02805 -12.4032,9.99055 -0.9652,0.9625 -1.755,2.70236 -1.755,3.86636 0,1.9175 0.3636,1.78789 3.8693,-1.37931 2.1281,-1.92262 5.507,-4.03617 7.5087,-4.69679 2.0017,-0.66061 4.198,-1.00744 4.8807,-0.77073 0.6827,0.23671 -0.158,0.74476 -1.8682,1.12901 -1.7102,0.38425 -4.3691,2.0135 -5.9088,3.62055 -2.238,2.33599 -2.786,3.80976 -2.7324,7.34945 0.037,2.43514 1.0324,6.61092 2.2124,9.2795 1.18,2.66858 3.3306,6.08946 4.779,7.60196 1.4484,1.5125 2.1205,2.75 1.4934,2.75 -0.627,0 -2.3203,-0.53776 -3.7628,-1.19501 -1.4425,-0.65726 -5.339,-4.57148 -8.6588,-8.69828 -3.3198,-4.12679 -6.5034,-8.52891 -7.0746,-9.78249 -0.7347,-1.61254 -0.6731,-4.40648 0.2105,-9.55173 0.6869,-3.99987 1.4858,-13.34749 1.7753,-20.77249 0.2894,-7.425 0.01,-19.8 -0.6241,-27.5 -0.6327,-7.7 -2.0562,-22.04108 -3.1633,-31.86907 -1.5725,-13.96029 -1.7688,-18.60863 -0.897,-21.25 0.6137,-1.85951 1.542,-3.38093 2.0629,-3.38093 0.5208,0 2.1734,2.08037 3.6724,4.62304 1.499,2.54267 3.5442,5.58017 4.5451,6.75 l 1.8197,2.12696 -0.6395,-2.95203 c -0.3517,-1.62362 -3.345,-7.80688 -6.6517,-13.74057 -3.3068,-5.93369 -6.7982,-11.75904 -7.7587,-12.94521 -1.7315,-2.13827 -1.8088,-2.14259 -9.0553,-0.50613 -4.0199,0.90781 -8.8508,2.60353 -10.7354,3.76827 -1.8846,1.16475 -4.5123,3.83776 -5.8394,5.94004 l -2.413,3.82232 -12.6661,-6.46715 c -6.9663,-3.55693 -12.9393,-6.1911 -13.2732,-5.85371 -0.3339,0.33739 0.5726,1.58561 2.0145,2.77381 1.4419,1.1882 3.1294,3.14328 3.75,4.34462 0.6206,1.20134 1.1444,6.15134 1.164,11 0.02,4.84866 0.6876,11.51574 1.4844,14.81574 0.7968,3.3 1.4558,7.558 1.4644,9.46223 l 0.016,3.46222 -3.0207,-3.46222 c -1.6614,-1.90423 -4.3642,-5.71223 -6.0062,-8.46223 -1.642,-2.75 -3.45,-6.6875 -4.0178,-8.75 -0.5678,-2.0625 -1.4651,-3.75 -1.9939,-3.75 -0.5288,0 -0.9614,0.82955 -0.9614,1.84345 0,1.0139 0.8421,4.2764 1.8714,7.25 1.0292,2.9736 3.5099,8.1919 5.5125,11.59621 2.0026,3.40431 10.9582,17.38665 19.9012,31.07186 8.943,13.68521 17.9998,28.30979 20.1261,32.49907 l 3.8662,7.61688 -1.5869,6.81126 c -0.8728,3.7462 -2.3011,11.28313 -3.174,16.74874 -0.8729,5.46561 -2.1337,11.07005 -2.8018,12.45431 -0.6681,1.38427 -3.1622,3.99991 -5.5425,5.81254 -2.3802,1.81262 -4.8552,3.29353 -5.5,3.2909 -0.6447,-0.003 0.519,-1.55808 2.586,-3.45656 2.0671,-1.89848 4.2291,-4.69018 4.8046,-6.20377 0.5754,-1.5136 1.2955,-7.04564 1.6002,-12.29344 0.4036,-6.95038 0.1118,-11.44236 -1.0744,-16.54145 -0.8956,-3.85 -3.8989,-11.59431 -6.674,-17.20958 -3.9155,-7.92256 -6.2811,-11.33866 -10.5608,-15.25 -3.0332,-2.77223 -5.9287,-5.04042 -6.4344,-5.04042 -0.5057,0 -0.9194,0.28296 -0.9194,0.6288 0,0.34584 1.5592,2.35468 3.4649,4.4641 1.9058,2.10941 4.5432,5.98895 5.8611,8.6212 1.3178,2.63224 3.3348,7.7109 4.4822,11.2859 1.1474,3.575 2.2225,7.4 2.389,8.5 0.256,1.69068 -0.3927,2.07733 -4.1939,2.5 -4.3543,0.48416 -4.8452,0.91182 -15.4954,13.5 -6.0493,7.15 -13.5163,15.5875 -16.5933,18.75 -5.3203,5.46811 -5.8353,5.74928 -10.5046,5.73522 -2.7005,-0.008 -7.8243,-0.70165 -11.3862,-1.54115 -3.5618,-0.8395 -10.9868,-2.8874 -16.5,-4.55089 -9.4184,-2.84185 -10.3472,-3.36782 -15.3782,-8.70885 -2.9449,-3.12638 -6.5957,-7.48433 -8.113,-9.68433 -1.5172,-2.2 -3.0731,-5.125 -3.4574,-6.5 -0.4631,-1.65703 0.2951,-0.98265 2.2487,2 1.6211,2.475 4.4614,5.89183 6.3118,7.59296 1.8504,1.70112 4.9393,4.02382 6.8643,5.16155 1.925,1.13773 6.1675,2.83858 9.4278,3.77968 3.9757,1.14762 7.9338,1.55006 12.0194,1.22211 3.7764,-0.30313 8.056,-1.48435 11.2597,-3.10778 2.8424,-1.44034 6.8155,-4.31299 8.8291,-6.38366 2.0137,-2.07067 5.362,-6.68986 7.4407,-10.26486 2.0787,-3.575 5.2383,-9.40658 7.0213,-12.95907 2.8254,-5.62935 3.1762,-7.17083 2.7305,-12 -0.2813,-3.04751 -1.6174,-8.01593 -2.9691,-11.04093 -1.3518,-3.025 -4.1476,-7.525 -6.2129,-10 -2.0653,-2.475 -5.5945,-5.75005 -7.8428,-7.27788 -2.2482,-1.52783 -6.3638,-3.44014 -9.1457,-4.24957 -4.482,-1.30409 -5.8153,-2.41128 -11.7074,-9.72212 -3.6571,-4.53774 -7.8196,-10.45495 -9.25,-13.14937 -1.4303,-2.69442 -2.6006,-5.66912 -2.6006,-6.61045 0,-0.94134 1.2347,-3.46181 2.7439,-5.60106 2.5453,-3.60811 2.7682,-4.72855 3.0802,-15.4848 0.1963,-6.76983 -0.1477,-13.42831 -0.8267,-16 -0.8829,-3.34349 -2.7694,-5.97685 -7.8302,-10.92974 -3.667,-3.58875 -10.9422,-9.7174 -16.1672,-13.61923 -5.225,-3.90183 -12.5454,-8.95308 -16.2676,-11.22501 -3.7222,-2.27192 -7.2097,-4.13077 -7.75,-4.13077 -0.5403,0 -0.9824,0.37469 -0.9824,0.83264 0,0.45794 1.9125,2.35282 4.25,4.21082 2.3375,1.858 6.88,5.8674 10.0945,8.90976 3.2145,3.04237 6.2647,6.31657 6.7782,7.276 0.7664,1.43216 0.096,1.29927 -3.7435,-0.7424 -3.2587,-1.73268 -6.2575,-2.48682 -9.8886,-2.48682 -3.959,0 -6.1463,0.62772 -9.1011,2.61186 -2.1392,1.43653 -8.0192,5.95342 -13.0666,10.03754 -5.0473,4.08412 -11.6655,10.11354 -14.707,13.39872 -3.0415,3.28517 -7.6315,8.91814 -10.2001,12.51771 -2.5686,3.59957 -6.6342,10.55628 -9.0345,15.45936 -3.2431,6.62426 -5.1437,9.31771 -7.3977,10.4833 -1.6684,0.86274 -5.6097,2.02491 -8.7585,2.58259 -3.1488,0.55769 -7.2311,1.4896 -9.0718,2.07092 -2.6473,0.83603 -3.847,2.13139 -5.7403,6.19747 -1.3164,2.82729 -2.3979,5.70303 -2.4032,6.39053 -0.01,0.6875 0.3277,1.24443 0.7402,1.23762 0.4125,-0.007 1.7854,-1.6104 3.0508,-3.56353 1.3916,-2.1478 2.9509,-3.42596 3.9459,-3.23435 0.9047,0.17424 2.5635,1.88946 3.6861,3.8116 1.455,2.49132 2.0015,5.07462 1.9032,8.99674 -0.086,3.43555 -0.9262,6.98973 -2.2369,9.46336 -1.2445,2.34853 -2.0978,5.80933 -2.0959,8.5 0,2.49621 0.7111,8.58856 1.5763,13.53856 0.8651,4.95 3.0962,14.94497 4.9578,22.21105 1.8616,7.26608 5.2508,18.06608 7.5314,24 2.2806,5.93392 5.2822,13.93895 6.6702,17.78895 1.388,3.85 3.3837,12.625 4.435,19.5 1.0512,6.875 2.8184,14.38389 3.9271,16.68643 1.1087,2.30253 3.8296,5.82501 6.0463,7.82774 2.2168,2.00272 4.2551,3.4167 4.5297,3.14218 0.2745,-0.27452 -0.4414,-1.772 -1.591,-3.32774 -1.1495,-1.55574 -3.0088,-5.30361 -4.1317,-8.32861 l -2.0418,-5.5 6.5774,7.19558 c 3.6176,3.95758 9.6308,9.22545 13.3626,11.7064 3.7319,2.48094 12.601,7.68043 19.7092,11.55441 l 12.924,7.04361 8.5071,0.115 c 7.2212,0.0976 7.9025,0.24006 4.5072,0.94237 -2.2,0.45505 -7.15,0.81753 -11,0.8055 -3.85,-0.012 -9.8434,-0.63913 -13.3186,-1.39356 z m -56.5537,-53.79924 c -0.3567,-3.48145 -1.3301,-8.9467 -2.1632,-12.14498 -0.833,-3.19828 -3.0111,-9.23732 -4.84,-13.42007 -1.829,-4.18276 -4.5392,-11.88002 -6.0226,-17.10502 -1.4834,-5.225 -3.8071,-11.1875 -5.1637,-13.25 -1.3566,-2.0625 -2.8872,-3.75 -3.4014,-3.75 -0.5141,0 -0.3206,1.46995 0.4301,3.26655 0.7507,1.7966 1.9965,6.99522 2.7685,11.55249 0.7721,4.55726 1.0951,8.4767 0.7178,8.70987 -0.3772,0.23316 -1.4039,-0.3694 -2.2814,-1.33903 -0.8775,-0.96962 -2.5384,-3.89465 -3.6909,-6.50005 -1.173,-2.65185 -2.5499,-4.45619 -3.128,-4.09894 -0.6142,0.37962 -0.7588,2.09699 -0.357,4.23908 0.3716,1.9805 1.3652,4.96647 2.2081,6.63547 0.8429,1.66901 3.6553,5.50956 6.2498,8.53456 2.5946,3.025 6.3108,7.75 8.2583,10.5 1.9475,2.75 4.2889,6.4737 5.203,8.27489 0.9141,1.8012 2.138,5.8512 2.7197,9 0.5818,3.14881 1.266,6.06261 1.5205,6.47511 0.2545,0.4125 0.7233,0.75 1.0418,0.75 0.3185,0 0.2872,-2.84847 -0.069,-6.32993 z m 236.3723,-78.57118 c 1.375,-0.99596 2.6497,-2.57278 2.8328,-3.50404 0.183,-0.93125 -0.3899,-2.79606 -1.2731,-4.14402 -0.8832,-1.34796 -2.0758,-2.45083 -2.6502,-2.45083 -0.5743,0 -0.7821,0.82624 -0.4615,1.83608 0.3808,1.19981 -0.6906,3.50369 -3.0917,6.64833 l -3.6744,4.81225 2.909,-0.69346 c 1.6,-0.3814 4.0341,-1.50834 5.4091,-2.50431 z m -279,-40.40311 c 0,-1.26732 -1.4106,-4.52982 -3.1346,-7.25 -1.724,-2.72018 -5.1624,-7.19578 -7.6408,-9.94578 -2.4783,-2.75 -5.6317,-6.69367 -7.0073,-8.7637 -2.3115,-3.47828 -2.4587,-4.3883 -1.94,-12 l 0.5611,-8.2363 -2.3853,2.76638 c -1.312,1.52151 -3.0756,5.09069 -3.9192,7.9315 -0.8437,2.84082 -1.5339,5.7681 -1.5339,6.50506 0,0.73697 1.1744,3.11454 2.6097,5.2835 1.4354,2.16896 4.2479,5.18318 6.25,6.69827 2.0022,1.51508 5.7076,4.67677 8.2343,7.02597 2.5268,2.3492 5.4076,6.07533 6.4019,8.28029 0.9943,2.20497 2.1895,4.00903 2.656,4.00903 0.4664,0 0.8481,-1.0369 0.8481,-2.30422 z m 86.7997,-130.89413 c 0.179,-0.92986 -0.7767,-2.39568 -2.1478,-3.29408 -1.3588,-0.89028 -7.7988,-2.69158 -14.3112,-4.00289 -6.5124,-1.31131 -13.3262,-2.91334 -15.1418,-3.56006 -1.8155,-0.64672 -3.578,-0.89883 -3.9166,-0.56024 -0.3386,0.33859 -0.378,0.85325 -0.088,1.14369 0.2904,0.29044 7.6779,3.17068 16.4166,6.40054 8.7388,3.22986 16.5585,5.79956 17.3772,5.71044 0.8186,-0.0891 1.6337,-0.91594 1.8111,-1.8374 z m 409.2003,226.05615 c 0,-1.36155 0.657,-3.34905 1.46,-4.41667 1.3135,-1.74648 1.3532,-1.54003 0.3954,2.05887 -0.5855,2.2 -1.2425,4.1875 -1.46,4.41667 -0.2175,0.22916 -0.3954,-0.69733 -0.3954,-2.05887 z m -128.5411,-1.92433 c -0.3626,-0.58659 -0.4447,-1.281 -0.1826,-1.54313 0.2621,-0.26213 0.7431,0.21781 1.0688,1.06653 0.3256,0.84872 0.4078,1.54313 0.1825,1.54313 -0.2253,0 -0.7062,-0.47994 -1.0687,-1.06653 z m 102.699,-271.93347 c 0,-1.375 0.227,-1.9375 0.5044,-1.25 0.2774,0.6875 0.2774,1.8125 0,2.5 -0.2774,0.6875 -0.5044,0.125 -0.5044,-1.25 z m 0.921,-5.58333 c 0.048,-1.16495 0.285,-1.4019 0.6042,-0.60417 0.2889,0.72187 0.2533,1.58438 -0.079,1.91667 -0.3323,0.33229 -0.5686,-0.25834 -0.5252,-1.3125 z m 28,-238 c 0.048,-1.16495 0.285,-1.4019 0.6042,-0.60417 0.2889,0.72187 0.2533,1.58437 -0.079,1.91667 -0.3323,0.33229 -0.5686,-0.25834 -0.5252,-1.3125 z"
       id="path5821" />
    <path
       style="fill:none;stroke:none"
       d="M 0,0 V 1280 H 1280 V 0 H 0 m 580,220 c -11.43,40.659 -17.212,82.984 -20.089,125 -1.896,27.673 -2.497,56.746 3.513,84 3.881,17.597 9.755,36.95 19.936,52 2.608,3.855 16.039,17.218 20.022,7.772 C 605.104,484.688 602.341,478.288 602,474 h 1 c 2.617,19.417 11.687,39.441 23.375,55 3.183,4.238 8.839,13.196 14.625,13.824 5.728,0.621 11.594,-8.951 14.572,-12.824 11.629,-15.125 20.866,-34.976 23.428,-54 h 1 c -0.151,3.52 -2.461,9.41 -0.802,12.606 6.247,12.029 18.872,-4.127 21.543,-9.606 10.709,-21.969 18.535,-45.766 21.834,-70 1.679,-12.338 0.425,-25.555 0.425,-38 0,-28.529 -1.044,-56.755 -5.424,-85 -2.696,-17.382 -8.813,-35.499 -9.576,-53 h 1 c 15.258,73.724 47.395,145.044 26,221 l -5,-1 c -8.311,29.073 -21.496,59.835 -34.755,87 -3.29,6.74 -6.38,13.799 -8.524,21 -0.647,2.174 -2.305,6.436 -0.078,8.248 3.04,2.476 7.012,-3.358 8.552,-5.249 6.275,-7.703 12.195,-15.628 18.88,-22.999 19.633,-21.647 42.556,-41.785 60.249,-65 6.505,-8.535 14.835,-22.895 12.676,-34 l -31,22 c 7.907,-16.622 25.979,-22.271 35.451,-37 8.142,-12.66 5.549,-32.536 5.549,-47 h 1 l 3.148,28.999 5.857,6.726 L 823,409 c -0.107,5.019 -3.912,12.369 -1.882,16.985 2.87,6.526 12.887,8.796 18.882,11.216 5.947,2.399 11.821,6.874 18,8.381 11.248,2.742 27.452,1.175 39,0.328 7.47,-0.548 15.655,-7.18 23,-4.658 23.078,7.924 40.23,30.265 63,39.748 v -1 l -18,-15 c 15.021,2.023 29.965,3.506 45,5.286 25.53,3.021 48.45,10.778 67.38,-12.286 3.03,-3.683 5.76,-7.395 7.18,-12 1.8,-5.873 1.44,-11.935 1.44,-18 h 1 c 4.38,21.238 -1.52,38.078 -8.57,58 -1.34,3.786 0.63,8.612 -1.17,11.83 -3.84,6.848 -12.84,11.795 -17.76,18.17 -5.97,7.729 -11.49,17.688 -19.51,23.487 -9.54,6.885 -24.84,4.182 -32.99,13.513 7.42,-1.92 17.31,-5.64 25,-4.632 5.95,0.78 11.31,4.796 17,6.603 19.74,6.275 48.51,6.806 52,-18.971 h 1 c 8.26,27.959 -12.56,53.641 -20.28,79 -8.12,26.673 -3.78,47.119 -1.81,74 0.82,11.138 -1.88,33.534 6.09,42 -1.25,-9.887 -2.05,-20.353 1,-30 14.39,7.352 15.96,31.233 29.01,41.24 3.6,2.753 14.68,7.237 13.93,12.775 -0.67,4.959 -7.52,9.217 -10.94,12.271 -6.03,5.382 -9.93,12.204 -14.58,18.714 -12.16,17.048 -26.25,38.334 -42.42,51.671 -8.44,6.957 -19.63,11.279 -29,16.93 C 1016.31,864.673 1004.96,872 985,872 v -1 c 17.91,-3.475 30.41,-14.413 43,-27 18.12,-18.125 28.15,-34.02 36.69,-58 2.07,-5.792 6.65,-12.77 6.65,-19 0,-17.14 -12.13,-35.935 -19.03,-51 -3.42,-7.469 -4.78,-15.753 -8.63,-23 -3.13,-5.873 -7.32,-11.394 -12.68,-15.39 -3.73,-2.783 -9.8,-4.789 -11.35,-9.625 -1.99,-6.153 4.95,-15.435 7.15,-20.985 5.08,-12.821 9.9,-29.037 9.09,-43 -0.81,-13.989 -11.21,-8.776 -18.47,-14.742 -3.09,-2.534 -3.87,-7.548 -4.42,-11.258 h 15 c -18.11,-9.645 -43.818,1.357 -57.911,14.425 -5.673,5.261 -9.74,12.121 -15.378,17.343 -4.115,3.81 -7.786,0.733 -12.092,2.7 -4.887,2.233 -6.583,9.815 -7.604,14.532 -4.642,21.431 8.554,49.66 -8.713,66.623 -4.882,4.797 -9.178,-6.678 -11.008,-9.623 -8.054,-12.957 -8.942,-24.191 -5.294,-39 h -1 c -7.159,19.205 -1.885,36.067 3.116,55 6.185,23.416 12.731,46.982 16.155,71 2.748,19.281 1.798,45.906 -15.271,59 5.012,-17.532 9.951,-38.583 5.239,-57 -4.407,-17.227 -17.143,-29.116 -25.775,-44 -4.942,-8.522 -6.929,-18.835 -10.464,-28 -8.747,10.289 -10.876,24.349 -18.702,34.826 C 848.88,755.129 818.147,773.028 794,775 l 22,-15.155 25,-21.845 -1,6 c 6.242,-5.365 9.139,-15.984 8,-24 -5.177,5.067 -9.534,8.82 -17,9 v -1 c 14.305,-3.439 18.098,-19.343 21,-32 h 1 v 4 h 1 l 1,-30 3,3 c 1.953,-8.986 -6.204,-23.379 -17,-21.476 -7.05,1.243 -13.687,10.744 -17,16.476 7.291,2.017 11.254,-2.087 17,-6 -4.194,10.793 -15.991,10.57 -23.985,17.329 C 807.402,687.455 802.789,700.377 799,712 h -1 v -6 c -4.101,4.101 -8.098,9.121 -13,12.272 -9.306,5.983 -15.887,4.201 -16,17.728 h -1 l -10,-13 c 1.471,-4.393 0.791,-14.626 -4.209,-17.079 -6.086,-2.986 -3.771,8.808 -2.931,11.074 0.787,2.121 2.024,4.049 3.14,6.005 -5.475,4.932 -3.445,10.42 -2.424,17 2.043,13.173 5.932,23.657 10.424,36 -13.006,-7.519 -18.875,-22.524 -26.001,-35 -2.197,-3.847 -5.832,-13.664 -11.011,-14.034 -4.319,-0.308 -8.748,6.706 -11.988,9.034 5.095,-18.673 2.181,-25.261 -10.576,-40 -3.954,-4.569 -7.567,-9.967 -13.424,-12 0,28.999 -2.619,59.471 8,87 h 2 l 3,-8 h 1 l -4,20 h -1 l -1,-3 h -1 c -1.86,6.361 6.564,13.585 12.001,16.583 15.683,8.65 36.824,11.936 53.999,16.838 72.086,20.576 153.212,31.031 228,21.579 v 1 c -27.715,6.111 -51.315,22.094 -80,26.255 -3.307,0.479 -26.509,2.475 -22,5.745 v 1 c -56.276,0 -113.957,-7.44 -168,-23.72 -9.562,-2.881 -22.785,-6.988 -29.772,-14.465 -5.337,-5.712 -0.286,-21.858 -11.226,-22.818 -2.179,-0.191 -4.898,1.462 -7.002,2.003 0.672,-3.967 3.241,-8.975 0.257,-12.57 -3.262,-3.931 -10.665,-3.502 -15.257,-4.434 -12.951,-2.629 -19.112,-2.386 -32,0.196 -4.539,0.91 -10.176,0.705 -13.682,4.227 -3.369,3.384 -1.413,8.403 -2.318,12.581 -15.036,-7.797 -10.224,10.154 -14.218,17.815 -2.337,4.481 -9.548,7.113 -13.782,9.416 -16.616,9.035 -31.794,11.172 -50,15.193 -16.292,3.599 -32.411,8.468 -49,10.576 l 6,10 h -3 v 1 c 10.984,7.984 19.025,1.851 30,5.274 14.789,4.612 25.626,24.599 18,37.726 h -1 v -19 c -8.916,-3.707 -16.186,-6.821 -26,-5 8.788,20.997 28.979,38.278 30,62 h -1 l -16,-29 h -1 l 20,47 C 527.423,968.484 526.407,957.528 522.547,948 516.572,933.25 506.673,920.781 499,907 l 4,1 L 486,894.325 473,890 v 9 c -6.359,-4.076 -8.081,-9.967 -10,-17 l 17,-1 c -0.104,-5.051 -0.068,-13.144 -5.109,-15.972 -5.56,-3.12 -15.812,0.598 -21.891,0.936 -20.379,1.135 -40.545,3.036 -61,3.036 v -1 l 4,-2 L 346,855.975 295,836 v -1 c 26.723,0.552 53.088,4.139 80,2.961 46.893,-2.054 91.536,-10.398 137,-21.834 18.938,-4.764 37.586,-10.989 56,-17.472 6.167,-2.171 16.832,-7.686 18.655,-14.64 C 587.62,780.335 581.398,771.876 581,767 h 1 c 6.788,6.769 10.033,-12.335 10.7,-17 2.804,-19.623 4.905,-46.58 1.3,-66 -9.34,3.184 -28.541,24.603 -28.799,35 -0.164,6.622 4.769,13.773 6.799,20 h -1 c -2.765,-4.497 -7.319,-13.777 -13.985,-11.953 -6.888,1.884 -9.561,12.229 -12.016,17.953 -4.631,10.799 -14.324,28.998 -25.999,33 9.133,-17.358 14.488,-36.019 12.024,-55 -0.592,-4.559 4.932,-14.102 -0.4,-17.079 -5.315,-2.968 -7.102,14.098 -5.624,17.079 -6.818,3.707 -9.321,11.096 -12,18 h -1 l 1.532,-18 11.817,-33 12.864,-49 11.787,-18 -20,3 c 3.422,-5.224 11.658,-7.799 17,-10.872 8.662,-4.983 16.156,-11.579 24,-17.704 6.244,-4.874 12.937,-8.794 10,-17.424 l 9,3 c -5.478,-10.997 -15.523,-26.137 -25,-34 l 1,5 h -1 c -11.313,-20.32 -30.246,-42.614 -52,-52 l 5,46 -7,68 h -1 c 0,-20.58 -2.019,-41.515 -3.925,-62 -0.286,-3.067 -2.797,-22.432 -8.075,-15 -4.751,-3.357 -3,-11.742 -3,-17 h -1 c -2.47,8.556 -9.932,17.238 -18,21 l 2,-11 h -1 L 469.258,553 453,569 h -1 l 2,-23 4,1 c -2.22,-4.662 -10.255,-10.045 -10.263,-15 -0.009,-5.2 6.996,-9.34 9.873,-13.001 C 465.562,508.881 468.02,496.925 480,490 l -9.56,17 -4.44,23 c 10.173,-6.438 22.432,-5.565 27.896,-19 3.151,-7.749 -4.731,-20.733 -7.472,-28 -5.778,-15.318 -11.321,-30.733 -17.235,-46 -3.451,-8.908 -8.747,-18.342 -9.189,-28 5.27,1.209 12.845,9.665 17.891,8.462 3.544,-0.845 4.108,-5.505 3.924,-8.462 -0.699,-11.231 1.131,-22.136 4.185,-33 h 1 c -2.984,16.072 -5.262,36.96 4.789,51 9.304,12.997 25.09,19.951 33.211,34 -7.273,-3.372 -13.09,-9.959 -20,-14.189 -2.132,-1.305 -5.937,-4.447 -8.643,-3.39 -3.193,1.248 -1.031,7.31 -0.462,9.579 2.374,9.465 7.133,18.327 13.12,26 25.74,32.987 61.845,57.982 84.985,93 h 1 c 4.366,-10.37 -3.123,-22.709 -7.753,-32 C 576.7,518.837 569.2,496.129 560.95,474 559.7,470.649 552.383,448.135 549,459 h -1 l -8.961,-67 11.75,-62 L 578,220 h 2 m 127.667,10.667 -0.334,0.666 0.334,-0.666 M 391,408 c -2.157,7.56 -4.811,13.903 -3.957,22 2.595,24.611 30.893,32.998 39.957,54 l -25,-12 v 1 c 6.312,4.106 2.377,11.976 0.873,18 -3.873,15.519 -0.347,34.351 2.377,50 0.821,4.717 6.012,12.686 5.002,16.985 -1.075,4.58 -6.325,6.201 -8.799,1.941 C 398.61,555.029 399.001,548.443 399,543 h -1 c -5.16,21.672 13.453,39.843 35,40.895 23.056,1.125 44.647,-9.882 58,-27.895 h 1 l -8,38 -4,-4 h -1 c 2.16,7.484 7.899,13.293 9.38,21 3.604,18.75 1.161,39.879 2.706,59 0.531,6.584 8.014,19.445 5.781,25 -5.154,12.822 -24.998,15.216 -28.867,29 5.817,-5.68 11.062,-8.455 19,-10 v 1 c -15.83,5.401 -16.033,21.379 -3,31 v 1 c -9.363,-0.628 -20.458,-12.814 -22.191,-22 -2.16,-11.446 3.33,-26.96 3.187,-39 -0.182,-15.29 -2.334,-30.812 -4.151,-46 -1.099,-9.186 -3.096,-18.08 0.155,-27 l 11,13 c -4.223,-14.657 -12.637,-34.415 -30,-27.536 -5.048,2.001 -9.338,9.893 -14.043,10.514 -6.423,0.849 -17.901,-8.456 -23.957,-10.978 8.677,9.179 8.992,32.36 9,45 l -16,-24 c 5.105,37.876 55.512,64.913 48.465,104 -2.376,13.174 -0.929,28.039 -16.465,33 2.77,-3.949 6.714,-7.279 8.196,-12 6.47,-20.609 -4.469,-52.175 -23.196,-63 7.687,11.052 12.952,20.703 16,34 -19.459,5.821 -24.393,26.994 -41,37.258 -5.925,3.661 -14.718,1.349 -21,-0.142 C 350.371,747.932 331.721,740.694 327,721 h 1 c 10.17,16.538 31.437,29.09 50,16.892 7.729,-5.079 12.539,-12.875 16.745,-20.892 2.599,-4.956 6.806,-10.235 7.111,-16 0.63,-11.933 -9.157,-25.979 -18.856,-32.005 -4,-2.485 -9.033,-2.894 -12.83,-5.697 -5.051,-3.728 -9.432,-10.153 -12.95,-15.298 -9.541,-13.953 2.812,-27.859 0.48,-44 -2.755,-19.064 -33.149,-38.073 -49.7,-45 l 22,23 c -5.121,-2.129 -10.22,-5.418 -16,-4.797 -6.482,0.696 -12.155,6.118 -17,10.058 -12.202,9.923 -23.032,20.482 -31.655,33.739 -3.767,5.791 -5.916,13.776 -10.735,18.725 -10.05,10.321 -24.274,2.027 -28.61,20.275 4.734,-5.5 10.024,-10.08 13.057,0 2.992,9.942 -4.804,17.346 -3.768,27 3.082,28.712 15.591,53.566 22.827,81 3.988,15.122 2.178,29.527 15.884,40 l -7,-16 c 6.19,3.557 10.302,10.519 16,14.985 16.895,13.243 33.737,21.015 55,21.015 v 1 c -25.762,8.721 -50.342,-7.202 -73,-17.139 -6.967,-3.055 -18.941,-4.751 -24.211,-10.28 -4.522,-4.743 -7.187,-12.01 -10.6,-17.581 -7.178,-11.716 -14.584,-23.305 -21.801,-35 -5.419,-8.781 -17.734,-17.611 -20.996,-27 -1.9,-5.468 5.103,-13.78 6.704,-19 2.471,-8.061 1.803,-20.679 0.604,-29 -1.527,-10.592 -7.547,-21.058 -13.125,-30 -2.411,-3.865 -7.056,-8.365 -7.698,-13 -0.91,-6.561 8.321,-20.015 10.402,-27 1.504,-5.045 2.752,-18.317 8.075,-20.824 2.986,-1.407 10.631,6.136 13.646,7.601 11.981,5.822 18.368,3.328 31,3.223 -1.511,6.357 -6.27,9.865 -11,14 15.329,-4.511 24.724,-24.173 34.2,-36 3.425,-4.275 9.843,-9.593 11.245,-15 2.055,-7.927 -8.625,-17.764 -15.445,-19 5.486,5.362 9.799,8.985 11,17 -11.143,-4.547 -28.662,-4.342 -35,-16 16.033,-8.046 4.17,-24.474 -1.742,-36 -11.729,-22.865 -29.418,-41.688 -31.347,-68 -0.631,-8.612 -2.184,-18.648 5.089,-25 0,6.796 -0.905,14.33 0.518,21 3.992,18.714 20.053,27.814 31.903,41.039 10.678,11.919 17.648,24.57 33.579,29.961 v 1 c -13.965,-1.141 -23.717,-7.544 -35,-15 14.102,19.853 40.89,19.799 60.945,29.652 3.839,1.886 5.137,6.212 8.163,9.022 5.229,4.856 12.142,6.959 18.892,8.696 6.604,1.701 14.743,2.297 20.91,5.143 2.39,1.103 5.628,5.691 8.352,3.021 8.724,-8.553 -5.242,-30.323 -6.008,-39.534 -0.606,-7.28 6.455,-11.96 10.468,-17 6.773,-8.505 5.806,-24.795 15.278,-31 -1.47,18.622 1.928,35.755 5.6,54 2.406,11.955 6.315,23.756 3.4,36 8.385,-8.94 1.943,-31.217 -0.2,-42 -3.784,-19.041 -2.032,-35.837 -1.804,-55 0.18,-15.102 -0.962,-30.258 12.004,-41 m 424,117 -15,-1 39,-16.607 22,1.607 v 1 c -10.734,4.493 -23.158,12.145 -26,24 l 4,1 c 0.55,10.583 8.385,13.919 18,14 v 1 c -13.564,2.798 -29.373,-2.014 -24,-19 -16.458,3.808 -32.415,15.487 -47,24 v 1 l 9,-2 -6,12 c 9.317,-0.077 18.135,-5.542 27,-5.447 10.32,0.111 21.498,12.7 21,22.447 h -1 c -0.603,-7.999 -8.316,-12.133 -16,-10.771 -5.939,1.053 -8.389,6.908 -13.015,10.069 -9.364,6.399 -23.278,5.713 -30.985,14.702 h 6 c 2.492,16.935 15.577,26.952 20.436,42 1.956,6.057 -2.468,14.742 3.564,19 -1.514,-11.555 13.03,-11.754 19.674,-18.329 4.025,-3.983 6.064,-9.573 10.419,-13.281 5.55,-4.724 12.577,-6.01 17.867,-11.405 5.006,-5.106 8.038,-11.858 13.214,-16.772 5.976,-5.675 15.385,-6.325 18.173,-15.213 4.703,-14.991 1.802,-37.776 -0.961,-53 -1.454,-8.011 -6.979,-19.618 -1.733,-26.991 8.039,-11.297 15.778,8.253 21.347,12.991 -3.702,-17.885 -17.244,-38.011 -33,-47.521 -9.822,-5.928 -19.359,-6.085 -28,-14.465 -5.507,-5.341 -24.87,-24.342 -31.647,-13.955 -8.838,13.543 -11.04,31.803 -16.024,46.941 -2.817,8.557 -8.076,16.833 -8.314,26 -0.094,3.608 -0.728,8.686 1.727,11.683 4.18,5.101 22.158,5.19 26.258,0.317 m 90,-70 v 1 l 48,15 c -6.258,-15.819 -33.445,-21.451 -48,-16 m -223,11 v 3 h -1 l 1,-3 m -1,4 v 5 h -1 l 1,-5 m -79.333,1.667 -0.334,0.666 0.334,-0.666 m -2.668,21.817 c -4.103,0.671 -8.292,2.895 -8.47,7.52 -0.241,6.227 3.739,13.261 5.779,18.996 3.605,10.139 5.865,20.648 8.703,31 1.668,6.088 2.988,13.858 10.99,12.782 6.424,-0.863 18.705,-8.047 17.457,-15.782 -0.736,-4.558 -5.682,-8.418 -8.299,-12 -4.97,-6.804 -8.607,-14.271 -11.875,-22 -2.906,-6.871 -4.149,-22.175 -14.285,-20.516 M 693,496 c -4.056,-1.489 -10.613,-4.416 -14.775,-1.968 -3.492,2.053 -4.378,7.428 -5.558,10.968 -2.746,8.235 -5.645,16.654 -10.365,24 -3.402,5.294 -14.556,14.334 -13.513,20.996 1.126,7.197 16.146,16.781 22.997,12.821 4.879,-2.819 5.614,-10.859 6.614,-15.817 1.44,-7.147 3.251,-14.097 5.603,-21 3.388,-9.944 5.268,-20.316 8.997,-30 m 312,-2 c -10.543,4.037 -22.613,9.562 -34,10.101 -9.614,0.455 -20.425,-5.347 -28.606,2.457 -7.771,7.412 -16.005,44.809 -1.394,46.442 -6.833,5.97 -15.93,12.336 -17,22 8.045,-4.008 14.328,-10.864 22,-15.536 10.536,-6.417 22.054,-10.468 32,-17.939 13.852,-10.405 25.4,-22.883 43,-26.525 v -1 l -34,-8 18,-12 m -291,57 c -5.717,8.475 -11.401,16.829 -17.531,25 -3.629,4.838 -2.754,8.855 3.531,6 1.238,9.145 5.676,17.422 16,15 5.695,14.372 20.61,22.064 35,26 v 1 c -3.65,-0.471 -14.662,-4.489 -16.632,0.318 -2.204,5.378 9.082,14.403 10.711,19.682 5.078,16.448 8.751,32.052 12.121,49 1.503,7.56 2.899,18.858 8.438,24.682 5.88,6.183 16.612,0.268 19.945,-5.697 6.243,-11.172 3.723,-28.079 1.206,-39.985 -2.367,-11.2 -8.185,-21.037 -10.789,-32 l 9,7 c -2.756,-8.31 -10.283,-12.538 -15.674,-19 -6.377,-7.642 -10.225,-17.078 -16.226,-25 -2.699,-3.564 -8.656,-7.615 -9.754,-11.999 -2.047,-8.172 16.219,-12.026 19.626,-17.391 2.9,-4.565 1.028,-14.358 1.028,-19.61 0,-12.002 2.707,-23.242 4.75,-35 0.558,-3.213 4.398,-14.879 -0.899,-15.468 -4.522,-0.503 -9.589,4.606 -12.851,7.119 -10.523,8.108 -20.267,16.749 -28.346,27.349 -3.698,4.853 -5.99,12.351 -12.654,13 M 260,514 c 6.747,7.327 25.3,11.755 35,14 1.385,-9.513 -27.501,-12.281 -35,-14 m 584,7 -1,1 1,-1 m 60,3 -1,18 h 1 v -18 m -125,23 -2,6 2,-6 m -163,39 c 17.208,-1.501 33.987,-2.548 51,0 -2.521,-6.844 -18.053,-26.365 -26,-26.364 -8.158,0 -22.73,19.254 -25,26.364 m 99,-27 -3,3 3,-3 m -142,5 -1,1 1,-1 m 3,5 1,4 h -1 v -4 m 181,14 9,-8 -9,8 m -145,63 c 9.748,-4.207 25.766,-14.644 27,-26 5.028,1.507 6.807,6.249 10.174,9.996 5.454,6.067 12.989,13.405 20.826,16.004 1.364,-4.613 0.704,-9.261 1.286,-14 1.14,-9.277 7.18,-23.273 1.856,-31.985 -9.742,-15.941 -48.938,-19.104 -60.493,-3.922 -7.949,10.445 -1.802,25.368 -0.823,36.907 0.383,4.503 -1.04,8.583 0.174,13 m -134,-57 1,1 -1,-1 m 237,1 -1,1 1,-1 m -122.059,14.006 c -6.179,1.69 -10.96,10.206 -14.567,14.994 -11.914,15.818 -21.444,28.658 -22.335,49 -0.346,7.905 -1.493,16.101 -0.995,23.999 0.18,2.862 1.148,7.13 4.999,6.249 5.369,-1.227 10.239,-9.511 13.958,-13.248 5.821,-5.849 14.895,-11.746 18.859,-19.001 4.246,-7.77 3.719,-21.28 4.101,-29.999 0.363,-8.296 0.095,-16.696 0.038,-25 -0.019,-2.747 0.258,-8.174 -4.058,-6.994 M 687,603 c -5.455,14.567 -1.939,34.134 0.066,49 0.466,3.451 -1.483,6.593 -0.112,10 3.105,7.719 12.294,14.248 18.046,20 3.306,3.306 14.578,18.352 19.682,16.654 5.194,-1.727 3.533,-22.204 3.229,-26.654 -1.435,-20.95 -11.851,-36.998 -24.715,-53 -4.507,-5.606 -9.214,-13.52 -16.196,-16 m -498,8 c -16.832,20.867 8.931,31.625 19,48 h 1 c -1.306,-12.747 -13.237,-19.295 -18.573,-30 -3.108,-6.237 0.413,-12.014 -1.427,-18 m 719,2 c -3.915,2.595 -9.25,3.057 -12.606,6.394 C 887.456,627.286 883.887,650.146 883,661 h 1 L 898.069,628 908,613 m -120,10 7.1,18 2.9,14 c 4.548,-10.778 0.392,-25.889 -10,-32 m 85,43 c 4.431,-8.442 7.539,-20.45 7.961,-30 0.139,-3.169 0.955,-8.84 -2.279,-10.781 -4.643,-2.787 -17.181,4.782 -17.565,9.87 -0.403,5.357 7.881,11.791 9.75,16.911 1.704,4.67 -0.453,9.844 2.133,14 M 640,627.346 c -3.101,0.774 -5.597,4.384 -7.576,6.654 -5.069,5.813 -19.581,14.49 -19.676,22.985 -0.081,7.17 23.773,19.762 30.252,18.554 5.922,-1.105 26.097,-10.885 26.404,-17.543 0.394,-8.571 -14.977,-19.608 -20.404,-24.995 -2.194,-2.178 -5.418,-6.55 -9,-5.655 M 1037,636 c -9.94,17.461 -11.3,36.467 9,47 l -11.56,-24 2.56,-23 m -186,14 10,13 c 2.025,-6.849 -3.816,-11.879 -10,-13 m -180,48 c 1.356,-3.638 2.432,-7.164 3.079,-11 0.801,-4.743 2.037,-14.101 -3.473,-16.863 -4.911,-2.463 -16.838,8.973 -16.489,13.823 0.371,5.156 12.475,12.542 16.883,14.04 m -60.566,-26.971 c -5.652,3.849 -2.046,29.853 5.412,25.313 3.004,-1.829 12.64,-8.844 12.902,-12.435 0.489,-6.709 -11.87,-17.268 -18.314,-12.878 M 487,687 l -7,13 c 7.146,-1.275 14.259,-6.571 7,-13 m 140,62 c -5.977,5.222 -15.496,10.522 -10,19 -5.086,1.545 -6.003,6.68 -0.891,9.427 4.923,2.647 11.024,1.627 15.891,-0.427 l -3,-5 23,2 -1,3 13,2 v 1 l -4,3 c 4.874,2.054 10.118,2.959 12,-3 l -7,-1 v -1 c 4.49,-2.265 6.927,-7.916 1,-10 5.047,-7.127 -0.829,-11.009 -6,-16 14.949,7.513 13.39,-8.674 11.829,-19 -1.218,-8.067 -7.415,-9.913 -12.528,-15.184 -3.629,-3.742 -5.565,-8.404 -8.178,-12.812 -1.905,-3.215 -4.212,-6.162 -8.127,-6.76 -8.723,-1.333 -12.399,8.932 -16.355,14.756 -4.113,6.055 -12.163,9.529 -15.207,16.004 -2.107,4.479 -4.212,24.884 2.675,25.999 4.108,0.665 9.328,-4.318 12.891,-6.003 m -397,-33 5,24 -8,-12 h -2 c 0.114,13.55 10.206,20.522 17.251,31 4.924,7.323 6.169,14.843 8.749,23 h 1 c -0.13,-15.646 -7.193,-27.573 -11.561,-42 -2.536,-8.374 -3.423,-17.986 -10.439,-24 m 478,30 -2,8 h -1 l 3,-8 m -131,2 1,3 -1,-3 m 83,4 -3,-2 3,2 m -79,13 -1,1 1,-1 m 41,18 c -10.067,-9.728 -12.901,6.198 0,0 m 37,73 2,22 -2,-1 -1,1 c 7.019,8.937 15.853,6.752 25,3 4.964,13.256 2.487,22.145 -3,34 12.278,-4.188 35.838,-19.944 28,-34 11.221,-1.684 12.994,8.111 13,17 l 4,-5 c 6.349,4.199 14.34,15.518 22,16.549 4.061,0.546 8.862,-4.446 12,-6.548 9.942,-6.661 24.197,-11.681 19,-25.001 12.57,0.105 14.812,5.584 12,17 l 4,-5 c 4.631,1.781 23.012,12.185 21.539,18.075 -1.87,7.473 -15.922,14.37 -20.539,20.925 l 7,-2 v 1 c -16.156,8.961 -32.942,19.105 -43,35 h -1 l 1,-10 -22,35 h -1 l 7,-16 -3,2 c -3.513,-7.937 -4.502,-16.371 -3.911,-25 0.269,-3.918 2.735,-10.176 0.794,-13.836 -2.511,-4.735 -8.059,-0.413 -10.883,1.557 -9.042,6.311 -15.755,14.086 -20,24.279 h -1 v -11 h -1 l -11,34 h -1 l 3,-14 -6.11,-3.148 L 685.55,947 682.652,928 693,911 c -5.911,6.312 -12.049,6.085 -20,8 l 10,-20 c -4.266,-1.217 -9.621,-4.585 -14.065,-2.338 -5.618,2.841 -5.908,10.899 -5.934,16.338 -0.066,13.532 -1.329,27.934 -5.001,41 h -1 l 1,-25 h -2 l -4,42 h -1 l 1.961,-42 2.039,-15 c -0.568,-2.001 -1.088,-4.024 -1.725,-6.005 -6.054,-18.846 -12.041,3.926 -18.275,9.005 1.738,-6.375 1.247,-12.397 -2.966,-17.852 -2.767,-3.582 -9.619,-4.025 -11.341,0.985 -1.487,4.326 1.449,11.511 2.306,15.867 2.239,11.377 5.833,23.681 2.001,35 h -1 l -4,-24 h -1 l 5,54 h -1 l -12,-68 h 4 L 604.816,900.009 594,896 l -1,9 h -1 l -3,-19 c 18.296,-0.002 16,-10.899 16,-26 h 1 c 2.031,4.885 8.843,14.164 3,18 7.474,8.039 16.734,6.289 26,3 3.568,7.138 12.589,7.478 17.298,0.945 5.543,-7.691 3.281,-17.81 6.702,-25.945 m -84,23 9,39 c 4.368,0.782 6.006,3.822 7,8 l 6,-3 6,37 h -1 l -3,-3 c 7.918,13.764 16.161,20.974 13,38 h -1 c 0.112,-5.436 1.88,-10.868 -0.688,-16 -3.064,-6.121 -9.826,-8.402 -13.223,-14.04 -3.628,-6.019 -3.224,-14.572 -8.483,-19.754 C 583.617,940.289 576.4,947.071 575,952 l 3,-2 c -1.628,7.036 -12.578,30.479 -1,31 l 4,11 c 0.497,-4.464 1.936,-6.995 6,-9 l -4,12 -18.539,-13.105 1.642,-13.806 L 566,948 l -10,7 8.667,-17 0.333,-19 -2,1 -4,-25 h 1 l 8,30 h 2 L 565.293,897 575,879 m 196,26 -1,-3 c -8.938,9.515 -12.71,23.574 -18.606,34.999 -4.015,7.781 -8.582,9.85 -8.394,19.001 l 8,-9 1,5 c 4.972,-3.576 8.309,-8.745 13.001,-12.674 C 775.767,930.31 791.373,923.887 793,908 l -3,4 -6,-3 v -2 l 3,-1 -5,-8 -11,7 m 27,-7 11,8 c -1.585,-5.597 -5.38,-7.692 -11,-8 m -92,10 v -3 h -1 c -5.85,10.292 -5.91,22.077 -9.764,33 -2.579,7.311 -7.328,10.142 -3.236,18 l 9,-5 c 3.945,-16.411 23.488,-21.518 25,-40 -6.562,2.082 -9.245,-4.799 -12,-10 l -8,7 m 23,-7 10,9 c -1.126,-5.463 -4.655,-7.965 -10,-9 m -156,7 3,25 c 9.347,-2.839 1.203,-19.792 -3,-25 m 180,1 c -8.354,6.291 -20.019,10.725 -24,21 7.445,-0.828 24.169,-13.02 24,-21 m 4,6 -8,5 -5,23 c 8.056,-4.419 12.579,-19.53 15,-28 h -2 m -60,1 c -6.608,8.042 -5.555,17.174 -7,27 5.263,-4.847 9.126,-20.086 7,-27 m -156,60 1,3 -1,-3 m 34.667,2.667 -0.334,0.666 0.334,-0.666 M 544,982 l 1,3 h -1 v -3 m 67,14 -1,1 1,-1 m 8,22 v 1 c -16.944,6.95 -32.64,15.33 -40,33 h -1 l 4,-24 c -32.494,0.02 -65.057,13.32 -97,1 3.951,-1.54 8.766,-0.02 13,0 10.862,0.05 22.188,0.88 33,-0.17 29.904,-2.89 57.529,-16.74 88,-10.83 m 180,9 v 1 c -21.19,12.32 -48.992,3.98 -72,2.96 -5.141,-0.23 -20.632,-6.26 -24.353,-2.34 -2.655,2.8 2.352,17.77 2.353,22.38 h -1 c -9.258,-15.7 -23.273,-26.89 -41,-32 10.101,-6.9 33.742,-1.45 45,0.8 30.577,6.11 59.818,13.63 91,7.2 z"
       id="path5746" />
  </g>
</svg>
